G04 #@! TF.GenerationSoftware,KiCad,Pcbnew,5.1.4*
G04 #@! TF.CreationDate,2019-08-11T23:13:52-05:00*
G04 #@! TF.ProjectId,pic12f-garage-door,70696331-3266-42d6-9761-726167652d64,rev?*
G04 #@! TF.SameCoordinates,Original*
G04 #@! TF.FileFunction,Copper,L1,Top*
G04 #@! TF.FilePolarity,Positive*
%FSLAX46Y46*%
G04 Gerber Fmt 4.6, Leading zero omitted, Abs format (unit mm)*
G04 Created by KiCad (PCBNEW 5.1.4) date 2019-08-11 23:13:52*
%MOMM*%
%LPD*%
G04 APERTURE LIST*
%ADD10R,1.850000X1.850000*%
%ADD11C,1.850000*%
%ADD12R,1.550000X0.600000*%
%ADD13R,0.700000X1.300000*%
%ADD14R,1.800000X1.800000*%
%ADD15C,1.800000*%
%ADD16R,1.000000X1.250000*%
%ADD17C,0.800000*%
%ADD18C,0.500000*%
%ADD19C,0.250000*%
%ADD20C,0.254000*%
G04 APERTURE END LIST*
D10*
X120000000Y-50000000D03*
D11*
X122500000Y-50000000D03*
D10*
X123500000Y-64033400D03*
D11*
X121000000Y-64033400D03*
X118500000Y-64033400D03*
X116000000Y-64033400D03*
X113500000Y-64033400D03*
X111000000Y-64033400D03*
D12*
X114300000Y-55500000D03*
X114300000Y-56770000D03*
X114300000Y-58040000D03*
X114300000Y-59310000D03*
X119700000Y-59310000D03*
X119700000Y-58040000D03*
X119700000Y-56770000D03*
X119700000Y-55500000D03*
D13*
X109500000Y-59000000D03*
X111400000Y-59000000D03*
X123600000Y-59000000D03*
X125500000Y-59000000D03*
X123600000Y-55500000D03*
X125500000Y-55500000D03*
D14*
X113000000Y-50000000D03*
D15*
X110460000Y-50000000D03*
D16*
X109500000Y-55500000D03*
X111500000Y-55500000D03*
D17*
X120987347Y-55987347D03*
X112000000Y-57000000D03*
X113000000Y-61000000D03*
X121987347Y-54012653D03*
X119000000Y-52000000D03*
D18*
X109500000Y-53500000D02*
X113000000Y-50000000D01*
X109500000Y-55500000D02*
X109500000Y-53500000D01*
D19*
X119700000Y-55500000D02*
X120500000Y-55500000D01*
X120500000Y-55500000D02*
X120987347Y-55987347D01*
X109500000Y-58700000D02*
X108000000Y-57200000D01*
X109500000Y-59000000D02*
X109500000Y-58700000D01*
X108000000Y-52460000D02*
X110460000Y-50000000D01*
X108000000Y-57200000D02*
X108000000Y-52460000D01*
X114300000Y-59310000D02*
X114300000Y-59700000D01*
X114300000Y-59700000D02*
X113000000Y-61000000D01*
X119225000Y-56770000D02*
X119700000Y-56770000D01*
X120175000Y-56770000D02*
X119700000Y-56770000D01*
X119700000Y-56770000D02*
X120303002Y-56770000D01*
X122000000Y-55073002D02*
X122000000Y-54926998D01*
X122000000Y-54025306D02*
X121987347Y-54012653D01*
X119700000Y-56770000D02*
X121230000Y-56770000D01*
X121987347Y-56012653D02*
X121987347Y-54012653D01*
X121230000Y-56770000D02*
X121987347Y-56012653D01*
X123472000Y-55372000D02*
X123600000Y-55500000D01*
X117249999Y-65283401D02*
X115283401Y-65283401D01*
X118500000Y-64033400D02*
X117249999Y-65283401D01*
X114750000Y-62515000D02*
X119225000Y-58040000D01*
X119225000Y-58040000D02*
X119700000Y-58040000D01*
X114750000Y-64750000D02*
X114750000Y-62515000D01*
X115283401Y-65283401D02*
X114750000Y-64750000D01*
X119000000Y-52000000D02*
X120000000Y-53000000D01*
X120000000Y-53000000D02*
X122000000Y-53000000D01*
X123600000Y-54600000D02*
X123600000Y-55500000D01*
X122000000Y-53000000D02*
X123600000Y-54600000D01*
X119700000Y-58040000D02*
X120175000Y-58040000D01*
X123600000Y-55800000D02*
X123600000Y-55500000D01*
X121360000Y-58040000D02*
X123600000Y-55800000D01*
X119700000Y-58040000D02*
X121360000Y-58040000D01*
X123290000Y-59310000D02*
X123600000Y-59000000D01*
X119700000Y-59310000D02*
X123290000Y-59310000D01*
X119700000Y-60333400D02*
X119700000Y-59310000D01*
X116000000Y-64033400D02*
X119700000Y-60333400D01*
X115400001Y-57395001D02*
X114775000Y-56770000D01*
X114775000Y-56770000D02*
X114300000Y-56770000D01*
X115400001Y-59870001D02*
X115400001Y-57395001D01*
X112161601Y-63108401D02*
X115400001Y-59870001D01*
X111924999Y-63108401D02*
X112161601Y-63108401D01*
X111000000Y-64033400D02*
X111924999Y-63108401D01*
X112960000Y-58040000D02*
X113275000Y-58040000D01*
X113275000Y-58040000D02*
X114300000Y-58040000D01*
X112000000Y-59000000D02*
X112960000Y-58040000D01*
X111400000Y-59000000D02*
X112000000Y-59000000D01*
D20*
G36*
X125148126Y-46726714D02*
G01*
X125771572Y-46914943D01*
X126346579Y-47220681D01*
X126851247Y-47632279D01*
X127266362Y-48134067D01*
X127576105Y-48706924D01*
X127768682Y-49329039D01*
X127840001Y-50007593D01*
X127840000Y-52467581D01*
X127840000Y-52467582D01*
X127840001Y-64467711D01*
X127773286Y-65148126D01*
X127585057Y-65771570D01*
X127279323Y-66346573D01*
X126867721Y-66851248D01*
X126365933Y-67266362D01*
X125793077Y-67576104D01*
X125170961Y-67768682D01*
X124492417Y-67840000D01*
X110032279Y-67840000D01*
X109351874Y-67773286D01*
X108728430Y-67585057D01*
X108153427Y-67279323D01*
X107648752Y-66867721D01*
X107233638Y-66365933D01*
X106923896Y-65793077D01*
X106731318Y-65170961D01*
X106660000Y-64492417D01*
X106660000Y-52460000D01*
X107236324Y-52460000D01*
X107240001Y-52497332D01*
X107240000Y-57162677D01*
X107236324Y-57200000D01*
X107240000Y-57237322D01*
X107240000Y-57237332D01*
X107250997Y-57348985D01*
X107264956Y-57395001D01*
X107294454Y-57492246D01*
X107365026Y-57624276D01*
X107393936Y-57659502D01*
X107459999Y-57740001D01*
X107489003Y-57763804D01*
X108511928Y-58786730D01*
X108511928Y-59650000D01*
X108524188Y-59774482D01*
X108560498Y-59894180D01*
X108619463Y-60004494D01*
X108698815Y-60101185D01*
X108795506Y-60180537D01*
X108905820Y-60239502D01*
X109025518Y-60275812D01*
X109150000Y-60288072D01*
X109850000Y-60288072D01*
X109974482Y-60275812D01*
X110094180Y-60239502D01*
X110204494Y-60180537D01*
X110301185Y-60101185D01*
X110380537Y-60004494D01*
X110439502Y-59894180D01*
X110450000Y-59859573D01*
X110460498Y-59894180D01*
X110519463Y-60004494D01*
X110598815Y-60101185D01*
X110695506Y-60180537D01*
X110805820Y-60239502D01*
X110925518Y-60275812D01*
X111050000Y-60288072D01*
X111750000Y-60288072D01*
X111874482Y-60275812D01*
X111994180Y-60239502D01*
X112104494Y-60180537D01*
X112201185Y-60101185D01*
X112280537Y-60004494D01*
X112339502Y-59894180D01*
X112375812Y-59774482D01*
X112387622Y-59654566D01*
X112424276Y-59634974D01*
X112540001Y-59540001D01*
X112563804Y-59510998D01*
X112886928Y-59187873D01*
X112886928Y-59610000D01*
X112899188Y-59734482D01*
X112935498Y-59854180D01*
X112982704Y-59942495D01*
X112960199Y-59965000D01*
X112898061Y-59965000D01*
X112698102Y-60004774D01*
X112509744Y-60082795D01*
X112340226Y-60196063D01*
X112196063Y-60340226D01*
X112082795Y-60509744D01*
X112004774Y-60698102D01*
X111965000Y-60898061D01*
X111965000Y-61101939D01*
X112004774Y-61301898D01*
X112082795Y-61490256D01*
X112196063Y-61659774D01*
X112340226Y-61803937D01*
X112370821Y-61824380D01*
X111842335Y-62352866D01*
X111776013Y-62359398D01*
X111632752Y-62402855D01*
X111500722Y-62473427D01*
X111433038Y-62528974D01*
X111153647Y-62473400D01*
X110846353Y-62473400D01*
X110544965Y-62533350D01*
X110261063Y-62650946D01*
X110005558Y-62821669D01*
X109788269Y-63038958D01*
X109617546Y-63294463D01*
X109499950Y-63578365D01*
X109440000Y-63879753D01*
X109440000Y-64187047D01*
X109499950Y-64488435D01*
X109617546Y-64772337D01*
X109788269Y-65027842D01*
X110005558Y-65245131D01*
X110261063Y-65415854D01*
X110544965Y-65533450D01*
X110846353Y-65593400D01*
X111153647Y-65593400D01*
X111455035Y-65533450D01*
X111738937Y-65415854D01*
X111994442Y-65245131D01*
X112211731Y-65027842D01*
X112250000Y-64970568D01*
X112288269Y-65027842D01*
X112505558Y-65245131D01*
X112761063Y-65415854D01*
X113044965Y-65533450D01*
X113346353Y-65593400D01*
X113653647Y-65593400D01*
X113955035Y-65533450D01*
X114238937Y-65415854D01*
X114300151Y-65374952D01*
X114719601Y-65794403D01*
X114743400Y-65823402D01*
X114772398Y-65847200D01*
X114859124Y-65918375D01*
X114976425Y-65981074D01*
X114991154Y-65988947D01*
X115134415Y-66032404D01*
X115246068Y-66043401D01*
X115246078Y-66043401D01*
X115283401Y-66047077D01*
X115320724Y-66043401D01*
X117212677Y-66043401D01*
X117249999Y-66047077D01*
X117287321Y-66043401D01*
X117287332Y-66043401D01*
X117398985Y-66032404D01*
X117542246Y-65988947D01*
X117674275Y-65918375D01*
X117790000Y-65823402D01*
X117813803Y-65794398D01*
X118069809Y-65538392D01*
X118346353Y-65593400D01*
X118653647Y-65593400D01*
X118955035Y-65533450D01*
X119238937Y-65415854D01*
X119494442Y-65245131D01*
X119711731Y-65027842D01*
X119750000Y-64970568D01*
X119788269Y-65027842D01*
X120005558Y-65245131D01*
X120261063Y-65415854D01*
X120544965Y-65533450D01*
X120846353Y-65593400D01*
X121153647Y-65593400D01*
X121455035Y-65533450D01*
X121738937Y-65415854D01*
X121994442Y-65245131D01*
X122003435Y-65236138D01*
X122044463Y-65312894D01*
X122123815Y-65409585D01*
X122220506Y-65488937D01*
X122330820Y-65547902D01*
X122450518Y-65584212D01*
X122575000Y-65596472D01*
X123214250Y-65593400D01*
X123373000Y-65434650D01*
X123373000Y-64160400D01*
X123627000Y-64160400D01*
X123627000Y-65434650D01*
X123785750Y-65593400D01*
X124425000Y-65596472D01*
X124549482Y-65584212D01*
X124669180Y-65547902D01*
X124779494Y-65488937D01*
X124876185Y-65409585D01*
X124955537Y-65312894D01*
X125014502Y-65202580D01*
X125050812Y-65082882D01*
X125063072Y-64958400D01*
X125060000Y-64319150D01*
X124901250Y-64160400D01*
X123627000Y-64160400D01*
X123373000Y-64160400D01*
X123353000Y-64160400D01*
X123353000Y-63906400D01*
X123373000Y-63906400D01*
X123373000Y-62632150D01*
X123627000Y-62632150D01*
X123627000Y-63906400D01*
X124901250Y-63906400D01*
X125060000Y-63747650D01*
X125063072Y-63108400D01*
X125050812Y-62983918D01*
X125014502Y-62864220D01*
X124955537Y-62753906D01*
X124876185Y-62657215D01*
X124779494Y-62577863D01*
X124669180Y-62518898D01*
X124549482Y-62482588D01*
X124425000Y-62470328D01*
X123785750Y-62473400D01*
X123627000Y-62632150D01*
X123373000Y-62632150D01*
X123214250Y-62473400D01*
X122575000Y-62470328D01*
X122450518Y-62482588D01*
X122330820Y-62518898D01*
X122220506Y-62577863D01*
X122123815Y-62657215D01*
X122044463Y-62753906D01*
X122003435Y-62830662D01*
X121994442Y-62821669D01*
X121738937Y-62650946D01*
X121455035Y-62533350D01*
X121153647Y-62473400D01*
X120846353Y-62473400D01*
X120544965Y-62533350D01*
X120261063Y-62650946D01*
X120005558Y-62821669D01*
X119788269Y-63038958D01*
X119750000Y-63096232D01*
X119711731Y-63038958D01*
X119494442Y-62821669D01*
X119238937Y-62650946D01*
X118955035Y-62533350D01*
X118653647Y-62473400D01*
X118634802Y-62473400D01*
X120211004Y-60897198D01*
X120240001Y-60873401D01*
X120334974Y-60757676D01*
X120405546Y-60625647D01*
X120449003Y-60482386D01*
X120460000Y-60370733D01*
X120460000Y-60370724D01*
X120463676Y-60333401D01*
X120460000Y-60296078D01*
X120460000Y-60248072D01*
X120475000Y-60248072D01*
X120599482Y-60235812D01*
X120719180Y-60199502D01*
X120829494Y-60140537D01*
X120915444Y-60070000D01*
X122773222Y-60070000D01*
X122798815Y-60101185D01*
X122895506Y-60180537D01*
X123005820Y-60239502D01*
X123125518Y-60275812D01*
X123250000Y-60288072D01*
X123950000Y-60288072D01*
X124074482Y-60275812D01*
X124194180Y-60239502D01*
X124304494Y-60180537D01*
X124401185Y-60101185D01*
X124480537Y-60004494D01*
X124539502Y-59894180D01*
X124550000Y-59859573D01*
X124560498Y-59894180D01*
X124619463Y-60004494D01*
X124698815Y-60101185D01*
X124795506Y-60180537D01*
X124905820Y-60239502D01*
X125025518Y-60275812D01*
X125150000Y-60288072D01*
X125214250Y-60285000D01*
X125373000Y-60126250D01*
X125373000Y-59127000D01*
X125627000Y-59127000D01*
X125627000Y-60126250D01*
X125785750Y-60285000D01*
X125850000Y-60288072D01*
X125974482Y-60275812D01*
X126094180Y-60239502D01*
X126204494Y-60180537D01*
X126301185Y-60101185D01*
X126380537Y-60004494D01*
X126439502Y-59894180D01*
X126475812Y-59774482D01*
X126488072Y-59650000D01*
X126485000Y-59285750D01*
X126326250Y-59127000D01*
X125627000Y-59127000D01*
X125373000Y-59127000D01*
X125353000Y-59127000D01*
X125353000Y-58873000D01*
X125373000Y-58873000D01*
X125373000Y-57873750D01*
X125627000Y-57873750D01*
X125627000Y-58873000D01*
X126326250Y-58873000D01*
X126485000Y-58714250D01*
X126488072Y-58350000D01*
X126475812Y-58225518D01*
X126439502Y-58105820D01*
X126380537Y-57995506D01*
X126301185Y-57898815D01*
X126204494Y-57819463D01*
X126094180Y-57760498D01*
X125974482Y-57724188D01*
X125850000Y-57711928D01*
X125785750Y-57715000D01*
X125627000Y-57873750D01*
X125373000Y-57873750D01*
X125214250Y-57715000D01*
X125150000Y-57711928D01*
X125025518Y-57724188D01*
X124905820Y-57760498D01*
X124795506Y-57819463D01*
X124698815Y-57898815D01*
X124619463Y-57995506D01*
X124560498Y-58105820D01*
X124550000Y-58140427D01*
X124539502Y-58105820D01*
X124480537Y-57995506D01*
X124401185Y-57898815D01*
X124304494Y-57819463D01*
X124194180Y-57760498D01*
X124074482Y-57724188D01*
X123950000Y-57711928D01*
X123250000Y-57711928D01*
X123125518Y-57724188D01*
X123005820Y-57760498D01*
X122895506Y-57819463D01*
X122798815Y-57898815D01*
X122719463Y-57995506D01*
X122660498Y-58105820D01*
X122624188Y-58225518D01*
X122611928Y-58350000D01*
X122611928Y-58550000D01*
X121924801Y-58550000D01*
X123686731Y-56788072D01*
X123950000Y-56788072D01*
X124074482Y-56775812D01*
X124194180Y-56739502D01*
X124304494Y-56680537D01*
X124401185Y-56601185D01*
X124480537Y-56504494D01*
X124539502Y-56394180D01*
X124550000Y-56359573D01*
X124560498Y-56394180D01*
X124619463Y-56504494D01*
X124698815Y-56601185D01*
X124795506Y-56680537D01*
X124905820Y-56739502D01*
X125025518Y-56775812D01*
X125150000Y-56788072D01*
X125214250Y-56785000D01*
X125373000Y-56626250D01*
X125373000Y-55627000D01*
X125627000Y-55627000D01*
X125627000Y-56626250D01*
X125785750Y-56785000D01*
X125850000Y-56788072D01*
X125974482Y-56775812D01*
X126094180Y-56739502D01*
X126204494Y-56680537D01*
X126301185Y-56601185D01*
X126380537Y-56504494D01*
X126439502Y-56394180D01*
X126475812Y-56274482D01*
X126488072Y-56150000D01*
X126485000Y-55785750D01*
X126326250Y-55627000D01*
X125627000Y-55627000D01*
X125373000Y-55627000D01*
X125353000Y-55627000D01*
X125353000Y-55373000D01*
X125373000Y-55373000D01*
X125373000Y-54373750D01*
X125627000Y-54373750D01*
X125627000Y-55373000D01*
X126326250Y-55373000D01*
X126485000Y-55214250D01*
X126488072Y-54850000D01*
X126475812Y-54725518D01*
X126439502Y-54605820D01*
X126380537Y-54495506D01*
X126301185Y-54398815D01*
X126204494Y-54319463D01*
X126094180Y-54260498D01*
X125974482Y-54224188D01*
X125850000Y-54211928D01*
X125785750Y-54215000D01*
X125627000Y-54373750D01*
X125373000Y-54373750D01*
X125214250Y-54215000D01*
X125150000Y-54211928D01*
X125025518Y-54224188D01*
X124905820Y-54260498D01*
X124795506Y-54319463D01*
X124698815Y-54398815D01*
X124619463Y-54495506D01*
X124560498Y-54605820D01*
X124550000Y-54640427D01*
X124539502Y-54605820D01*
X124480537Y-54495506D01*
X124401185Y-54398815D01*
X124310624Y-54324494D01*
X124305546Y-54307753D01*
X124234974Y-54175724D01*
X124140001Y-54059999D01*
X124111004Y-54036202D01*
X122563804Y-52489003D01*
X122540001Y-52459999D01*
X122424276Y-52365026D01*
X122292247Y-52294454D01*
X122148986Y-52250997D01*
X122037333Y-52240000D01*
X122037322Y-52240000D01*
X122000000Y-52236324D01*
X121962678Y-52240000D01*
X120314802Y-52240000D01*
X120035000Y-51960199D01*
X120035000Y-51898061D01*
X119995226Y-51698102D01*
X119917205Y-51509744D01*
X119856042Y-51418208D01*
X119873000Y-51401250D01*
X119873000Y-50127000D01*
X118598750Y-50127000D01*
X118440000Y-50285750D01*
X118436928Y-50925000D01*
X118449188Y-51049482D01*
X118467796Y-51110824D01*
X118340226Y-51196063D01*
X118196063Y-51340226D01*
X118082795Y-51509744D01*
X118004774Y-51698102D01*
X117965000Y-51898061D01*
X117965000Y-52101939D01*
X118004774Y-52301898D01*
X118082795Y-52490256D01*
X118196063Y-52659774D01*
X118340226Y-52803937D01*
X118509744Y-52917205D01*
X118698102Y-52995226D01*
X118898061Y-53035000D01*
X118960199Y-53035000D01*
X119436200Y-53511002D01*
X119459999Y-53540001D01*
X119488997Y-53563799D01*
X119575724Y-53634974D01*
X119707753Y-53705546D01*
X119851014Y-53749003D01*
X120000000Y-53763677D01*
X120037333Y-53760000D01*
X120982326Y-53760000D01*
X120952347Y-53910714D01*
X120952347Y-54114592D01*
X120992121Y-54314551D01*
X121070142Y-54502909D01*
X121183410Y-54672427D01*
X121227348Y-54716365D01*
X121227348Y-54979809D01*
X121089286Y-54952347D01*
X121062646Y-54952347D01*
X121005537Y-54845506D01*
X120926185Y-54748815D01*
X120829494Y-54669463D01*
X120719180Y-54610498D01*
X120599482Y-54574188D01*
X120475000Y-54561928D01*
X118925000Y-54561928D01*
X118800518Y-54574188D01*
X118680820Y-54610498D01*
X118570506Y-54669463D01*
X118473815Y-54748815D01*
X118394463Y-54845506D01*
X118335498Y-54955820D01*
X118299188Y-55075518D01*
X118286928Y-55200000D01*
X118286928Y-55800000D01*
X118299188Y-55924482D01*
X118335498Y-56044180D01*
X118384043Y-56135000D01*
X118335498Y-56225820D01*
X118299188Y-56345518D01*
X118286928Y-56470000D01*
X118286928Y-57070000D01*
X118299188Y-57194482D01*
X118335498Y-57314180D01*
X118384043Y-57405000D01*
X118335498Y-57495820D01*
X118299188Y-57615518D01*
X118286928Y-57740000D01*
X118286928Y-57903270D01*
X116139334Y-60050864D01*
X116149004Y-60018987D01*
X116160001Y-59907334D01*
X116160001Y-59907325D01*
X116163677Y-59870002D01*
X116160001Y-59832679D01*
X116160001Y-57432324D01*
X116163677Y-57395001D01*
X116160001Y-57357678D01*
X116160001Y-57357668D01*
X116149004Y-57246015D01*
X116105547Y-57102754D01*
X116041308Y-56982573D01*
X116034975Y-56970724D01*
X115963800Y-56883998D01*
X115940002Y-56855000D01*
X115911003Y-56831201D01*
X115713072Y-56633270D01*
X115713072Y-56470000D01*
X115700812Y-56345518D01*
X115664502Y-56225820D01*
X115615957Y-56135000D01*
X115664502Y-56044180D01*
X115700812Y-55924482D01*
X115713072Y-55800000D01*
X115710000Y-55785750D01*
X115551250Y-55627000D01*
X114427000Y-55627000D01*
X114427000Y-55647000D01*
X114173000Y-55647000D01*
X114173000Y-55627000D01*
X113048750Y-55627000D01*
X112890000Y-55785750D01*
X112886928Y-55800000D01*
X112899188Y-55924482D01*
X112935498Y-56044180D01*
X112984043Y-56135000D01*
X112935498Y-56225820D01*
X112899188Y-56345518D01*
X112886928Y-56470000D01*
X112886928Y-57070000D01*
X112899188Y-57194482D01*
X112925058Y-57279765D01*
X112922677Y-57280000D01*
X112922667Y-57280000D01*
X112811014Y-57290997D01*
X112669912Y-57333799D01*
X112667753Y-57334454D01*
X112535723Y-57405026D01*
X112452083Y-57473668D01*
X112419999Y-57499999D01*
X112396201Y-57528997D01*
X112105176Y-57820023D01*
X112104494Y-57819463D01*
X111994180Y-57760498D01*
X111874482Y-57724188D01*
X111750000Y-57711928D01*
X111050000Y-57711928D01*
X110925518Y-57724188D01*
X110805820Y-57760498D01*
X110695506Y-57819463D01*
X110598815Y-57898815D01*
X110519463Y-57995506D01*
X110460498Y-58105820D01*
X110450000Y-58140427D01*
X110439502Y-58105820D01*
X110380537Y-57995506D01*
X110301185Y-57898815D01*
X110204494Y-57819463D01*
X110094180Y-57760498D01*
X109974482Y-57724188D01*
X109850000Y-57711928D01*
X109586730Y-57711928D01*
X108760000Y-56885199D01*
X108760000Y-56715770D01*
X108875518Y-56750812D01*
X109000000Y-56763072D01*
X110000000Y-56763072D01*
X110124482Y-56750812D01*
X110244180Y-56714502D01*
X110354494Y-56655537D01*
X110451185Y-56576185D01*
X110500000Y-56516704D01*
X110548815Y-56576185D01*
X110645506Y-56655537D01*
X110755820Y-56714502D01*
X110875518Y-56750812D01*
X111000000Y-56763072D01*
X111214250Y-56760000D01*
X111373000Y-56601250D01*
X111373000Y-55627000D01*
X111627000Y-55627000D01*
X111627000Y-56601250D01*
X111785750Y-56760000D01*
X112000000Y-56763072D01*
X112124482Y-56750812D01*
X112244180Y-56714502D01*
X112354494Y-56655537D01*
X112451185Y-56576185D01*
X112530537Y-56479494D01*
X112589502Y-56369180D01*
X112625812Y-56249482D01*
X112638072Y-56125000D01*
X112635000Y-55785750D01*
X112476250Y-55627000D01*
X111627000Y-55627000D01*
X111373000Y-55627000D01*
X111353000Y-55627000D01*
X111353000Y-55373000D01*
X111373000Y-55373000D01*
X111373000Y-54398750D01*
X111627000Y-54398750D01*
X111627000Y-55373000D01*
X112476250Y-55373000D01*
X112635000Y-55214250D01*
X112635129Y-55200000D01*
X112886928Y-55200000D01*
X112890000Y-55214250D01*
X113048750Y-55373000D01*
X114173000Y-55373000D01*
X114173000Y-54723750D01*
X114427000Y-54723750D01*
X114427000Y-55373000D01*
X115551250Y-55373000D01*
X115710000Y-55214250D01*
X115713072Y-55200000D01*
X115700812Y-55075518D01*
X115664502Y-54955820D01*
X115605537Y-54845506D01*
X115526185Y-54748815D01*
X115429494Y-54669463D01*
X115319180Y-54610498D01*
X115199482Y-54574188D01*
X115075000Y-54561928D01*
X114585750Y-54565000D01*
X114427000Y-54723750D01*
X114173000Y-54723750D01*
X114014250Y-54565000D01*
X113525000Y-54561928D01*
X113400518Y-54574188D01*
X113280820Y-54610498D01*
X113170506Y-54669463D01*
X113073815Y-54748815D01*
X112994463Y-54845506D01*
X112935498Y-54955820D01*
X112899188Y-55075518D01*
X112886928Y-55200000D01*
X112635129Y-55200000D01*
X112638072Y-54875000D01*
X112625812Y-54750518D01*
X112589502Y-54630820D01*
X112530537Y-54520506D01*
X112451185Y-54423815D01*
X112354494Y-54344463D01*
X112244180Y-54285498D01*
X112124482Y-54249188D01*
X112000000Y-54236928D01*
X111785750Y-54240000D01*
X111627000Y-54398750D01*
X111373000Y-54398750D01*
X111214250Y-54240000D01*
X111000000Y-54236928D01*
X110875518Y-54249188D01*
X110755820Y-54285498D01*
X110645506Y-54344463D01*
X110548815Y-54423815D01*
X110500000Y-54483296D01*
X110451185Y-54423815D01*
X110385000Y-54369499D01*
X110385000Y-53866578D01*
X112713507Y-51538072D01*
X113900000Y-51538072D01*
X114024482Y-51525812D01*
X114144180Y-51489502D01*
X114254494Y-51430537D01*
X114351185Y-51351185D01*
X114430537Y-51254494D01*
X114489502Y-51144180D01*
X114525812Y-51024482D01*
X114538072Y-50900000D01*
X114538072Y-49100000D01*
X114535610Y-49075000D01*
X118436928Y-49075000D01*
X118440000Y-49714250D01*
X118598750Y-49873000D01*
X119873000Y-49873000D01*
X119873000Y-48598750D01*
X120127000Y-48598750D01*
X120127000Y-49873000D01*
X120147000Y-49873000D01*
X120147000Y-50127000D01*
X120127000Y-50127000D01*
X120127000Y-51401250D01*
X120285750Y-51560000D01*
X120925000Y-51563072D01*
X121049482Y-51550812D01*
X121169180Y-51514502D01*
X121279494Y-51455537D01*
X121376185Y-51376185D01*
X121455537Y-51279494D01*
X121496565Y-51202738D01*
X121505558Y-51211731D01*
X121761063Y-51382454D01*
X122044965Y-51500050D01*
X122346353Y-51560000D01*
X122653647Y-51560000D01*
X122955035Y-51500050D01*
X123238937Y-51382454D01*
X123494442Y-51211731D01*
X123711731Y-50994442D01*
X123882454Y-50738937D01*
X124000050Y-50455035D01*
X124060000Y-50153647D01*
X124060000Y-49846353D01*
X124000050Y-49544965D01*
X123882454Y-49261063D01*
X123711731Y-49005558D01*
X123494442Y-48788269D01*
X123238937Y-48617546D01*
X122955035Y-48499950D01*
X122653647Y-48440000D01*
X122346353Y-48440000D01*
X122044965Y-48499950D01*
X121761063Y-48617546D01*
X121505558Y-48788269D01*
X121496565Y-48797262D01*
X121455537Y-48720506D01*
X121376185Y-48623815D01*
X121279494Y-48544463D01*
X121169180Y-48485498D01*
X121049482Y-48449188D01*
X120925000Y-48436928D01*
X120285750Y-48440000D01*
X120127000Y-48598750D01*
X119873000Y-48598750D01*
X119714250Y-48440000D01*
X119075000Y-48436928D01*
X118950518Y-48449188D01*
X118830820Y-48485498D01*
X118720506Y-48544463D01*
X118623815Y-48623815D01*
X118544463Y-48720506D01*
X118485498Y-48830820D01*
X118449188Y-48950518D01*
X118436928Y-49075000D01*
X114535610Y-49075000D01*
X114525812Y-48975518D01*
X114489502Y-48855820D01*
X114430537Y-48745506D01*
X114351185Y-48648815D01*
X114254494Y-48569463D01*
X114144180Y-48510498D01*
X114024482Y-48474188D01*
X113900000Y-48461928D01*
X112100000Y-48461928D01*
X111975518Y-48474188D01*
X111855820Y-48510498D01*
X111745506Y-48569463D01*
X111648815Y-48648815D01*
X111569463Y-48745506D01*
X111510498Y-48855820D01*
X111504944Y-48874127D01*
X111438505Y-48807688D01*
X111187095Y-48639701D01*
X110907743Y-48523989D01*
X110611184Y-48465000D01*
X110308816Y-48465000D01*
X110012257Y-48523989D01*
X109732905Y-48639701D01*
X109481495Y-48807688D01*
X109267688Y-49021495D01*
X109099701Y-49272905D01*
X108983989Y-49552257D01*
X108925000Y-49848816D01*
X108925000Y-50151184D01*
X108976269Y-50408930D01*
X107488998Y-51896201D01*
X107460000Y-51919999D01*
X107436202Y-51948997D01*
X107436201Y-51948998D01*
X107365026Y-52035724D01*
X107294454Y-52167754D01*
X107272539Y-52240000D01*
X107250998Y-52311014D01*
X107240001Y-52422667D01*
X107236324Y-52460000D01*
X106660000Y-52460000D01*
X106660000Y-50032278D01*
X106726714Y-49351874D01*
X106914943Y-48728428D01*
X107220681Y-48153421D01*
X107632279Y-47648753D01*
X108134067Y-47233638D01*
X108706924Y-46923895D01*
X109329039Y-46731318D01*
X110007584Y-46660000D01*
X124467722Y-46660000D01*
X125148126Y-46726714D01*
X125148126Y-46726714D01*
G37*
X125148126Y-46726714D02*
X125771572Y-46914943D01*
X126346579Y-47220681D01*
X126851247Y-47632279D01*
X127266362Y-48134067D01*
X127576105Y-48706924D01*
X127768682Y-49329039D01*
X127840001Y-50007593D01*
X127840000Y-52467581D01*
X127840000Y-52467582D01*
X127840001Y-64467711D01*
X127773286Y-65148126D01*
X127585057Y-65771570D01*
X127279323Y-66346573D01*
X126867721Y-66851248D01*
X126365933Y-67266362D01*
X125793077Y-67576104D01*
X125170961Y-67768682D01*
X124492417Y-67840000D01*
X110032279Y-67840000D01*
X109351874Y-67773286D01*
X108728430Y-67585057D01*
X108153427Y-67279323D01*
X107648752Y-66867721D01*
X107233638Y-66365933D01*
X106923896Y-65793077D01*
X106731318Y-65170961D01*
X106660000Y-64492417D01*
X106660000Y-52460000D01*
X107236324Y-52460000D01*
X107240001Y-52497332D01*
X107240000Y-57162677D01*
X107236324Y-57200000D01*
X107240000Y-57237322D01*
X107240000Y-57237332D01*
X107250997Y-57348985D01*
X107264956Y-57395001D01*
X107294454Y-57492246D01*
X107365026Y-57624276D01*
X107393936Y-57659502D01*
X107459999Y-57740001D01*
X107489003Y-57763804D01*
X108511928Y-58786730D01*
X108511928Y-59650000D01*
X108524188Y-59774482D01*
X108560498Y-59894180D01*
X108619463Y-60004494D01*
X108698815Y-60101185D01*
X108795506Y-60180537D01*
X108905820Y-60239502D01*
X109025518Y-60275812D01*
X109150000Y-60288072D01*
X109850000Y-60288072D01*
X109974482Y-60275812D01*
X110094180Y-60239502D01*
X110204494Y-60180537D01*
X110301185Y-60101185D01*
X110380537Y-60004494D01*
X110439502Y-59894180D01*
X110450000Y-59859573D01*
X110460498Y-59894180D01*
X110519463Y-60004494D01*
X110598815Y-60101185D01*
X110695506Y-60180537D01*
X110805820Y-60239502D01*
X110925518Y-60275812D01*
X111050000Y-60288072D01*
X111750000Y-60288072D01*
X111874482Y-60275812D01*
X111994180Y-60239502D01*
X112104494Y-60180537D01*
X112201185Y-60101185D01*
X112280537Y-60004494D01*
X112339502Y-59894180D01*
X112375812Y-59774482D01*
X112387622Y-59654566D01*
X112424276Y-59634974D01*
X112540001Y-59540001D01*
X112563804Y-59510998D01*
X112886928Y-59187873D01*
X112886928Y-59610000D01*
X112899188Y-59734482D01*
X112935498Y-59854180D01*
X112982704Y-59942495D01*
X112960199Y-59965000D01*
X112898061Y-59965000D01*
X112698102Y-60004774D01*
X112509744Y-60082795D01*
X112340226Y-60196063D01*
X112196063Y-60340226D01*
X112082795Y-60509744D01*
X112004774Y-60698102D01*
X111965000Y-60898061D01*
X111965000Y-61101939D01*
X112004774Y-61301898D01*
X112082795Y-61490256D01*
X112196063Y-61659774D01*
X112340226Y-61803937D01*
X112370821Y-61824380D01*
X111842335Y-62352866D01*
X111776013Y-62359398D01*
X111632752Y-62402855D01*
X111500722Y-62473427D01*
X111433038Y-62528974D01*
X111153647Y-62473400D01*
X110846353Y-62473400D01*
X110544965Y-62533350D01*
X110261063Y-62650946D01*
X110005558Y-62821669D01*
X109788269Y-63038958D01*
X109617546Y-63294463D01*
X109499950Y-63578365D01*
X109440000Y-63879753D01*
X109440000Y-64187047D01*
X109499950Y-64488435D01*
X109617546Y-64772337D01*
X109788269Y-65027842D01*
X110005558Y-65245131D01*
X110261063Y-65415854D01*
X110544965Y-65533450D01*
X110846353Y-65593400D01*
X111153647Y-65593400D01*
X111455035Y-65533450D01*
X111738937Y-65415854D01*
X111994442Y-65245131D01*
X112211731Y-65027842D01*
X112250000Y-64970568D01*
X112288269Y-65027842D01*
X112505558Y-65245131D01*
X112761063Y-65415854D01*
X113044965Y-65533450D01*
X113346353Y-65593400D01*
X113653647Y-65593400D01*
X113955035Y-65533450D01*
X114238937Y-65415854D01*
X114300151Y-65374952D01*
X114719601Y-65794403D01*
X114743400Y-65823402D01*
X114772398Y-65847200D01*
X114859124Y-65918375D01*
X114976425Y-65981074D01*
X114991154Y-65988947D01*
X115134415Y-66032404D01*
X115246068Y-66043401D01*
X115246078Y-66043401D01*
X115283401Y-66047077D01*
X115320724Y-66043401D01*
X117212677Y-66043401D01*
X117249999Y-66047077D01*
X117287321Y-66043401D01*
X117287332Y-66043401D01*
X117398985Y-66032404D01*
X117542246Y-65988947D01*
X117674275Y-65918375D01*
X117790000Y-65823402D01*
X117813803Y-65794398D01*
X118069809Y-65538392D01*
X118346353Y-65593400D01*
X118653647Y-65593400D01*
X118955035Y-65533450D01*
X119238937Y-65415854D01*
X119494442Y-65245131D01*
X119711731Y-65027842D01*
X119750000Y-64970568D01*
X119788269Y-65027842D01*
X120005558Y-65245131D01*
X120261063Y-65415854D01*
X120544965Y-65533450D01*
X120846353Y-65593400D01*
X121153647Y-65593400D01*
X121455035Y-65533450D01*
X121738937Y-65415854D01*
X121994442Y-65245131D01*
X122003435Y-65236138D01*
X122044463Y-65312894D01*
X122123815Y-65409585D01*
X122220506Y-65488937D01*
X122330820Y-65547902D01*
X122450518Y-65584212D01*
X122575000Y-65596472D01*
X123214250Y-65593400D01*
X123373000Y-65434650D01*
X123373000Y-64160400D01*
X123627000Y-64160400D01*
X123627000Y-65434650D01*
X123785750Y-65593400D01*
X124425000Y-65596472D01*
X124549482Y-65584212D01*
X124669180Y-65547902D01*
X124779494Y-65488937D01*
X124876185Y-65409585D01*
X124955537Y-65312894D01*
X125014502Y-65202580D01*
X125050812Y-65082882D01*
X125063072Y-64958400D01*
X125060000Y-64319150D01*
X124901250Y-64160400D01*
X123627000Y-64160400D01*
X123373000Y-64160400D01*
X123353000Y-64160400D01*
X123353000Y-63906400D01*
X123373000Y-63906400D01*
X123373000Y-62632150D01*
X123627000Y-62632150D01*
X123627000Y-63906400D01*
X124901250Y-63906400D01*
X125060000Y-63747650D01*
X125063072Y-63108400D01*
X125050812Y-62983918D01*
X125014502Y-62864220D01*
X124955537Y-62753906D01*
X124876185Y-62657215D01*
X124779494Y-62577863D01*
X124669180Y-62518898D01*
X124549482Y-62482588D01*
X124425000Y-62470328D01*
X123785750Y-62473400D01*
X123627000Y-62632150D01*
X123373000Y-62632150D01*
X123214250Y-62473400D01*
X122575000Y-62470328D01*
X122450518Y-62482588D01*
X122330820Y-62518898D01*
X122220506Y-62577863D01*
X122123815Y-62657215D01*
X122044463Y-62753906D01*
X122003435Y-62830662D01*
X121994442Y-62821669D01*
X121738937Y-62650946D01*
X121455035Y-62533350D01*
X121153647Y-62473400D01*
X120846353Y-62473400D01*
X120544965Y-62533350D01*
X120261063Y-62650946D01*
X120005558Y-62821669D01*
X119788269Y-63038958D01*
X119750000Y-63096232D01*
X119711731Y-63038958D01*
X119494442Y-62821669D01*
X119238937Y-62650946D01*
X118955035Y-62533350D01*
X118653647Y-62473400D01*
X118634802Y-62473400D01*
X120211004Y-60897198D01*
X120240001Y-60873401D01*
X120334974Y-60757676D01*
X120405546Y-60625647D01*
X120449003Y-60482386D01*
X120460000Y-60370733D01*
X120460000Y-60370724D01*
X120463676Y-60333401D01*
X120460000Y-60296078D01*
X120460000Y-60248072D01*
X120475000Y-60248072D01*
X120599482Y-60235812D01*
X120719180Y-60199502D01*
X120829494Y-60140537D01*
X120915444Y-60070000D01*
X122773222Y-60070000D01*
X122798815Y-60101185D01*
X122895506Y-60180537D01*
X123005820Y-60239502D01*
X123125518Y-60275812D01*
X123250000Y-60288072D01*
X123950000Y-60288072D01*
X124074482Y-60275812D01*
X124194180Y-60239502D01*
X124304494Y-60180537D01*
X124401185Y-60101185D01*
X124480537Y-60004494D01*
X124539502Y-59894180D01*
X124550000Y-59859573D01*
X124560498Y-59894180D01*
X124619463Y-60004494D01*
X124698815Y-60101185D01*
X124795506Y-60180537D01*
X124905820Y-60239502D01*
X125025518Y-60275812D01*
X125150000Y-60288072D01*
X125214250Y-60285000D01*
X125373000Y-60126250D01*
X125373000Y-59127000D01*
X125627000Y-59127000D01*
X125627000Y-60126250D01*
X125785750Y-60285000D01*
X125850000Y-60288072D01*
X125974482Y-60275812D01*
X126094180Y-60239502D01*
X126204494Y-60180537D01*
X126301185Y-60101185D01*
X126380537Y-60004494D01*
X126439502Y-59894180D01*
X126475812Y-59774482D01*
X126488072Y-59650000D01*
X126485000Y-59285750D01*
X126326250Y-59127000D01*
X125627000Y-59127000D01*
X125373000Y-59127000D01*
X125353000Y-59127000D01*
X125353000Y-58873000D01*
X125373000Y-58873000D01*
X125373000Y-57873750D01*
X125627000Y-57873750D01*
X125627000Y-58873000D01*
X126326250Y-58873000D01*
X126485000Y-58714250D01*
X126488072Y-58350000D01*
X126475812Y-58225518D01*
X126439502Y-58105820D01*
X126380537Y-57995506D01*
X126301185Y-57898815D01*
X126204494Y-57819463D01*
X126094180Y-57760498D01*
X125974482Y-57724188D01*
X125850000Y-57711928D01*
X125785750Y-57715000D01*
X125627000Y-57873750D01*
X125373000Y-57873750D01*
X125214250Y-57715000D01*
X125150000Y-57711928D01*
X125025518Y-57724188D01*
X124905820Y-57760498D01*
X124795506Y-57819463D01*
X124698815Y-57898815D01*
X124619463Y-57995506D01*
X124560498Y-58105820D01*
X124550000Y-58140427D01*
X124539502Y-58105820D01*
X124480537Y-57995506D01*
X124401185Y-57898815D01*
X124304494Y-57819463D01*
X124194180Y-57760498D01*
X124074482Y-57724188D01*
X123950000Y-57711928D01*
X123250000Y-57711928D01*
X123125518Y-57724188D01*
X123005820Y-57760498D01*
X122895506Y-57819463D01*
X122798815Y-57898815D01*
X122719463Y-57995506D01*
X122660498Y-58105820D01*
X122624188Y-58225518D01*
X122611928Y-58350000D01*
X122611928Y-58550000D01*
X121924801Y-58550000D01*
X123686731Y-56788072D01*
X123950000Y-56788072D01*
X124074482Y-56775812D01*
X124194180Y-56739502D01*
X124304494Y-56680537D01*
X124401185Y-56601185D01*
X124480537Y-56504494D01*
X124539502Y-56394180D01*
X124550000Y-56359573D01*
X124560498Y-56394180D01*
X124619463Y-56504494D01*
X124698815Y-56601185D01*
X124795506Y-56680537D01*
X124905820Y-56739502D01*
X125025518Y-56775812D01*
X125150000Y-56788072D01*
X125214250Y-56785000D01*
X125373000Y-56626250D01*
X125373000Y-55627000D01*
X125627000Y-55627000D01*
X125627000Y-56626250D01*
X125785750Y-56785000D01*
X125850000Y-56788072D01*
X125974482Y-56775812D01*
X126094180Y-56739502D01*
X126204494Y-56680537D01*
X126301185Y-56601185D01*
X126380537Y-56504494D01*
X126439502Y-56394180D01*
X126475812Y-56274482D01*
X126488072Y-56150000D01*
X126485000Y-55785750D01*
X126326250Y-55627000D01*
X125627000Y-55627000D01*
X125373000Y-55627000D01*
X125353000Y-55627000D01*
X125353000Y-55373000D01*
X125373000Y-55373000D01*
X125373000Y-54373750D01*
X125627000Y-54373750D01*
X125627000Y-55373000D01*
X126326250Y-55373000D01*
X126485000Y-55214250D01*
X126488072Y-54850000D01*
X126475812Y-54725518D01*
X126439502Y-54605820D01*
X126380537Y-54495506D01*
X126301185Y-54398815D01*
X126204494Y-54319463D01*
X126094180Y-54260498D01*
X125974482Y-54224188D01*
X125850000Y-54211928D01*
X125785750Y-54215000D01*
X125627000Y-54373750D01*
X125373000Y-54373750D01*
X125214250Y-54215000D01*
X125150000Y-54211928D01*
X125025518Y-54224188D01*
X124905820Y-54260498D01*
X124795506Y-54319463D01*
X124698815Y-54398815D01*
X124619463Y-54495506D01*
X124560498Y-54605820D01*
X124550000Y-54640427D01*
X124539502Y-54605820D01*
X124480537Y-54495506D01*
X124401185Y-54398815D01*
X124310624Y-54324494D01*
X124305546Y-54307753D01*
X124234974Y-54175724D01*
X124140001Y-54059999D01*
X124111004Y-54036202D01*
X122563804Y-52489003D01*
X122540001Y-52459999D01*
X122424276Y-52365026D01*
X122292247Y-52294454D01*
X122148986Y-52250997D01*
X122037333Y-52240000D01*
X122037322Y-52240000D01*
X122000000Y-52236324D01*
X121962678Y-52240000D01*
X120314802Y-52240000D01*
X120035000Y-51960199D01*
X120035000Y-51898061D01*
X119995226Y-51698102D01*
X119917205Y-51509744D01*
X119856042Y-51418208D01*
X119873000Y-51401250D01*
X119873000Y-50127000D01*
X118598750Y-50127000D01*
X118440000Y-50285750D01*
X118436928Y-50925000D01*
X118449188Y-51049482D01*
X118467796Y-51110824D01*
X118340226Y-51196063D01*
X118196063Y-51340226D01*
X118082795Y-51509744D01*
X118004774Y-51698102D01*
X117965000Y-51898061D01*
X117965000Y-52101939D01*
X118004774Y-52301898D01*
X118082795Y-52490256D01*
X118196063Y-52659774D01*
X118340226Y-52803937D01*
X118509744Y-52917205D01*
X118698102Y-52995226D01*
X118898061Y-53035000D01*
X118960199Y-53035000D01*
X119436200Y-53511002D01*
X119459999Y-53540001D01*
X119488997Y-53563799D01*
X119575724Y-53634974D01*
X119707753Y-53705546D01*
X119851014Y-53749003D01*
X120000000Y-53763677D01*
X120037333Y-53760000D01*
X120982326Y-53760000D01*
X120952347Y-53910714D01*
X120952347Y-54114592D01*
X120992121Y-54314551D01*
X121070142Y-54502909D01*
X121183410Y-54672427D01*
X121227348Y-54716365D01*
X121227348Y-54979809D01*
X121089286Y-54952347D01*
X121062646Y-54952347D01*
X121005537Y-54845506D01*
X120926185Y-54748815D01*
X120829494Y-54669463D01*
X120719180Y-54610498D01*
X120599482Y-54574188D01*
X120475000Y-54561928D01*
X118925000Y-54561928D01*
X118800518Y-54574188D01*
X118680820Y-54610498D01*
X118570506Y-54669463D01*
X118473815Y-54748815D01*
X118394463Y-54845506D01*
X118335498Y-54955820D01*
X118299188Y-55075518D01*
X118286928Y-55200000D01*
X118286928Y-55800000D01*
X118299188Y-55924482D01*
X118335498Y-56044180D01*
X118384043Y-56135000D01*
X118335498Y-56225820D01*
X118299188Y-56345518D01*
X118286928Y-56470000D01*
X118286928Y-57070000D01*
X118299188Y-57194482D01*
X118335498Y-57314180D01*
X118384043Y-57405000D01*
X118335498Y-57495820D01*
X118299188Y-57615518D01*
X118286928Y-57740000D01*
X118286928Y-57903270D01*
X116139334Y-60050864D01*
X116149004Y-60018987D01*
X116160001Y-59907334D01*
X116160001Y-59907325D01*
X116163677Y-59870002D01*
X116160001Y-59832679D01*
X116160001Y-57432324D01*
X116163677Y-57395001D01*
X116160001Y-57357678D01*
X116160001Y-57357668D01*
X116149004Y-57246015D01*
X116105547Y-57102754D01*
X116041308Y-56982573D01*
X116034975Y-56970724D01*
X115963800Y-56883998D01*
X115940002Y-56855000D01*
X115911003Y-56831201D01*
X115713072Y-56633270D01*
X115713072Y-56470000D01*
X115700812Y-56345518D01*
X115664502Y-56225820D01*
X115615957Y-56135000D01*
X115664502Y-56044180D01*
X115700812Y-55924482D01*
X115713072Y-55800000D01*
X115710000Y-55785750D01*
X115551250Y-55627000D01*
X114427000Y-55627000D01*
X114427000Y-55647000D01*
X114173000Y-55647000D01*
X114173000Y-55627000D01*
X113048750Y-55627000D01*
X112890000Y-55785750D01*
X112886928Y-55800000D01*
X112899188Y-55924482D01*
X112935498Y-56044180D01*
X112984043Y-56135000D01*
X112935498Y-56225820D01*
X112899188Y-56345518D01*
X112886928Y-56470000D01*
X112886928Y-57070000D01*
X112899188Y-57194482D01*
X112925058Y-57279765D01*
X112922677Y-57280000D01*
X112922667Y-57280000D01*
X112811014Y-57290997D01*
X112669912Y-57333799D01*
X112667753Y-57334454D01*
X112535723Y-57405026D01*
X112452083Y-57473668D01*
X112419999Y-57499999D01*
X112396201Y-57528997D01*
X112105176Y-57820023D01*
X112104494Y-57819463D01*
X111994180Y-57760498D01*
X111874482Y-57724188D01*
X111750000Y-57711928D01*
X111050000Y-57711928D01*
X110925518Y-57724188D01*
X110805820Y-57760498D01*
X110695506Y-57819463D01*
X110598815Y-57898815D01*
X110519463Y-57995506D01*
X110460498Y-58105820D01*
X110450000Y-58140427D01*
X110439502Y-58105820D01*
X110380537Y-57995506D01*
X110301185Y-57898815D01*
X110204494Y-57819463D01*
X110094180Y-57760498D01*
X109974482Y-57724188D01*
X109850000Y-57711928D01*
X109586730Y-57711928D01*
X108760000Y-56885199D01*
X108760000Y-56715770D01*
X108875518Y-56750812D01*
X109000000Y-56763072D01*
X110000000Y-56763072D01*
X110124482Y-56750812D01*
X110244180Y-56714502D01*
X110354494Y-56655537D01*
X110451185Y-56576185D01*
X110500000Y-56516704D01*
X110548815Y-56576185D01*
X110645506Y-56655537D01*
X110755820Y-56714502D01*
X110875518Y-56750812D01*
X111000000Y-56763072D01*
X111214250Y-56760000D01*
X111373000Y-56601250D01*
X111373000Y-55627000D01*
X111627000Y-55627000D01*
X111627000Y-56601250D01*
X111785750Y-56760000D01*
X112000000Y-56763072D01*
X112124482Y-56750812D01*
X112244180Y-56714502D01*
X112354494Y-56655537D01*
X112451185Y-56576185D01*
X112530537Y-56479494D01*
X112589502Y-56369180D01*
X112625812Y-56249482D01*
X112638072Y-56125000D01*
X112635000Y-55785750D01*
X112476250Y-55627000D01*
X111627000Y-55627000D01*
X111373000Y-55627000D01*
X111353000Y-55627000D01*
X111353000Y-55373000D01*
X111373000Y-55373000D01*
X111373000Y-54398750D01*
X111627000Y-54398750D01*
X111627000Y-55373000D01*
X112476250Y-55373000D01*
X112635000Y-55214250D01*
X112635129Y-55200000D01*
X112886928Y-55200000D01*
X112890000Y-55214250D01*
X113048750Y-55373000D01*
X114173000Y-55373000D01*
X114173000Y-54723750D01*
X114427000Y-54723750D01*
X114427000Y-55373000D01*
X115551250Y-55373000D01*
X115710000Y-55214250D01*
X115713072Y-55200000D01*
X115700812Y-55075518D01*
X115664502Y-54955820D01*
X115605537Y-54845506D01*
X115526185Y-54748815D01*
X115429494Y-54669463D01*
X115319180Y-54610498D01*
X115199482Y-54574188D01*
X115075000Y-54561928D01*
X114585750Y-54565000D01*
X114427000Y-54723750D01*
X114173000Y-54723750D01*
X114014250Y-54565000D01*
X113525000Y-54561928D01*
X113400518Y-54574188D01*
X113280820Y-54610498D01*
X113170506Y-54669463D01*
X113073815Y-54748815D01*
X112994463Y-54845506D01*
X112935498Y-54955820D01*
X112899188Y-55075518D01*
X112886928Y-55200000D01*
X112635129Y-55200000D01*
X112638072Y-54875000D01*
X112625812Y-54750518D01*
X112589502Y-54630820D01*
X112530537Y-54520506D01*
X112451185Y-54423815D01*
X112354494Y-54344463D01*
X112244180Y-54285498D01*
X112124482Y-54249188D01*
X112000000Y-54236928D01*
X111785750Y-54240000D01*
X111627000Y-54398750D01*
X111373000Y-54398750D01*
X111214250Y-54240000D01*
X111000000Y-54236928D01*
X110875518Y-54249188D01*
X110755820Y-54285498D01*
X110645506Y-54344463D01*
X110548815Y-54423815D01*
X110500000Y-54483296D01*
X110451185Y-54423815D01*
X110385000Y-54369499D01*
X110385000Y-53866578D01*
X112713507Y-51538072D01*
X113900000Y-51538072D01*
X114024482Y-51525812D01*
X114144180Y-51489502D01*
X114254494Y-51430537D01*
X114351185Y-51351185D01*
X114430537Y-51254494D01*
X114489502Y-51144180D01*
X114525812Y-51024482D01*
X114538072Y-50900000D01*
X114538072Y-49100000D01*
X114535610Y-49075000D01*
X118436928Y-49075000D01*
X118440000Y-49714250D01*
X118598750Y-49873000D01*
X119873000Y-49873000D01*
X119873000Y-48598750D01*
X120127000Y-48598750D01*
X120127000Y-49873000D01*
X120147000Y-49873000D01*
X120147000Y-50127000D01*
X120127000Y-50127000D01*
X120127000Y-51401250D01*
X120285750Y-51560000D01*
X120925000Y-51563072D01*
X121049482Y-51550812D01*
X121169180Y-51514502D01*
X121279494Y-51455537D01*
X121376185Y-51376185D01*
X121455537Y-51279494D01*
X121496565Y-51202738D01*
X121505558Y-51211731D01*
X121761063Y-51382454D01*
X122044965Y-51500050D01*
X122346353Y-51560000D01*
X122653647Y-51560000D01*
X122955035Y-51500050D01*
X123238937Y-51382454D01*
X123494442Y-51211731D01*
X123711731Y-50994442D01*
X123882454Y-50738937D01*
X124000050Y-50455035D01*
X124060000Y-50153647D01*
X124060000Y-49846353D01*
X124000050Y-49544965D01*
X123882454Y-49261063D01*
X123711731Y-49005558D01*
X123494442Y-48788269D01*
X123238937Y-48617546D01*
X122955035Y-48499950D01*
X122653647Y-48440000D01*
X122346353Y-48440000D01*
X122044965Y-48499950D01*
X121761063Y-48617546D01*
X121505558Y-48788269D01*
X121496565Y-48797262D01*
X121455537Y-48720506D01*
X121376185Y-48623815D01*
X121279494Y-48544463D01*
X121169180Y-48485498D01*
X121049482Y-48449188D01*
X120925000Y-48436928D01*
X120285750Y-48440000D01*
X120127000Y-48598750D01*
X119873000Y-48598750D01*
X119714250Y-48440000D01*
X119075000Y-48436928D01*
X118950518Y-48449188D01*
X118830820Y-48485498D01*
X118720506Y-48544463D01*
X118623815Y-48623815D01*
X118544463Y-48720506D01*
X118485498Y-48830820D01*
X118449188Y-48950518D01*
X118436928Y-49075000D01*
X114535610Y-49075000D01*
X114525812Y-48975518D01*
X114489502Y-48855820D01*
X114430537Y-48745506D01*
X114351185Y-48648815D01*
X114254494Y-48569463D01*
X114144180Y-48510498D01*
X114024482Y-48474188D01*
X113900000Y-48461928D01*
X112100000Y-48461928D01*
X111975518Y-48474188D01*
X111855820Y-48510498D01*
X111745506Y-48569463D01*
X111648815Y-48648815D01*
X111569463Y-48745506D01*
X111510498Y-48855820D01*
X111504944Y-48874127D01*
X111438505Y-48807688D01*
X111187095Y-48639701D01*
X110907743Y-48523989D01*
X110611184Y-48465000D01*
X110308816Y-48465000D01*
X110012257Y-48523989D01*
X109732905Y-48639701D01*
X109481495Y-48807688D01*
X109267688Y-49021495D01*
X109099701Y-49272905D01*
X108983989Y-49552257D01*
X108925000Y-49848816D01*
X108925000Y-50151184D01*
X108976269Y-50408930D01*
X107488998Y-51896201D01*
X107460000Y-51919999D01*
X107436202Y-51948997D01*
X107436201Y-51948998D01*
X107365026Y-52035724D01*
X107294454Y-52167754D01*
X107272539Y-52240000D01*
X107250998Y-52311014D01*
X107240001Y-52422667D01*
X107236324Y-52460000D01*
X106660000Y-52460000D01*
X106660000Y-50032278D01*
X106726714Y-49351874D01*
X106914943Y-48728428D01*
X107220681Y-48153421D01*
X107632279Y-47648753D01*
X108134067Y-47233638D01*
X108706924Y-46923895D01*
X109329039Y-46731318D01*
X110007584Y-46660000D01*
X124467722Y-46660000D01*
X125148126Y-46726714D01*
M02*
