G04 #@! TF.GenerationSoftware,KiCad,Pcbnew,5.1.4*
G04 #@! TF.CreationDate,2019-08-11T23:13:52-05:00*
G04 #@! TF.ProjectId,pic12f-garage-door,70696331-3266-42d6-9761-726167652d64,rev?*
G04 #@! TF.SameCoordinates,Original*
G04 #@! TF.FileFunction,Soldermask,Bot*
G04 #@! TF.FilePolarity,Negative*
%FSLAX46Y46*%
G04 Gerber Fmt 4.6, Leading zero omitted, Abs format (unit mm)*
G04 Created by KiCad (PCBNEW 5.1.4) date 2019-08-11 23:13:52*
%MOMM*%
%LPD*%
G04 APERTURE LIST*
%ADD10C,0.100000*%
G04 APERTURE END LIST*
D10*
G36*
X121284687Y-63094907D02*
G01*
X121284690Y-63094908D01*
X121284689Y-63094908D01*
X121462309Y-63168480D01*
X121462310Y-63168481D01*
X121622161Y-63275289D01*
X121758111Y-63411239D01*
X121847158Y-63544509D01*
X121864920Y-63571091D01*
X121921825Y-63708473D01*
X121938493Y-63748713D01*
X121976000Y-63937271D01*
X121976000Y-64129529D01*
X121938493Y-64318087D01*
X121938492Y-64318089D01*
X121864920Y-64495709D01*
X121864919Y-64495710D01*
X121758111Y-64655561D01*
X121622161Y-64791511D01*
X121488891Y-64880558D01*
X121462309Y-64898320D01*
X121324927Y-64955225D01*
X121284687Y-64971893D01*
X121096129Y-65009400D01*
X120903871Y-65009400D01*
X120715313Y-64971893D01*
X120675073Y-64955225D01*
X120537691Y-64898320D01*
X120511109Y-64880558D01*
X120377839Y-64791511D01*
X120241889Y-64655561D01*
X120135081Y-64495710D01*
X120135080Y-64495709D01*
X120061508Y-64318089D01*
X120061507Y-64318087D01*
X120024000Y-64129529D01*
X120024000Y-63937271D01*
X120061507Y-63748713D01*
X120078175Y-63708473D01*
X120135080Y-63571091D01*
X120152842Y-63544509D01*
X120241889Y-63411239D01*
X120377839Y-63275289D01*
X120537690Y-63168481D01*
X120537691Y-63168480D01*
X120715311Y-63094908D01*
X120715310Y-63094908D01*
X120715313Y-63094907D01*
X120903871Y-63057400D01*
X121096129Y-63057400D01*
X121284687Y-63094907D01*
X121284687Y-63094907D01*
G37*
G36*
X111284687Y-63094907D02*
G01*
X111284690Y-63094908D01*
X111284689Y-63094908D01*
X111462309Y-63168480D01*
X111462310Y-63168481D01*
X111622161Y-63275289D01*
X111758111Y-63411239D01*
X111847158Y-63544509D01*
X111864920Y-63571091D01*
X111921825Y-63708473D01*
X111938493Y-63748713D01*
X111976000Y-63937271D01*
X111976000Y-64129529D01*
X111938493Y-64318087D01*
X111938492Y-64318089D01*
X111864920Y-64495709D01*
X111864919Y-64495710D01*
X111758111Y-64655561D01*
X111622161Y-64791511D01*
X111488891Y-64880558D01*
X111462309Y-64898320D01*
X111324927Y-64955225D01*
X111284687Y-64971893D01*
X111096129Y-65009400D01*
X110903871Y-65009400D01*
X110715313Y-64971893D01*
X110675073Y-64955225D01*
X110537691Y-64898320D01*
X110511109Y-64880558D01*
X110377839Y-64791511D01*
X110241889Y-64655561D01*
X110135081Y-64495710D01*
X110135080Y-64495709D01*
X110061508Y-64318089D01*
X110061507Y-64318087D01*
X110024000Y-64129529D01*
X110024000Y-63937271D01*
X110061507Y-63748713D01*
X110078175Y-63708473D01*
X110135080Y-63571091D01*
X110152842Y-63544509D01*
X110241889Y-63411239D01*
X110377839Y-63275289D01*
X110537690Y-63168481D01*
X110537691Y-63168480D01*
X110715311Y-63094908D01*
X110715310Y-63094908D01*
X110715313Y-63094907D01*
X110903871Y-63057400D01*
X111096129Y-63057400D01*
X111284687Y-63094907D01*
X111284687Y-63094907D01*
G37*
G36*
X113784687Y-63094907D02*
G01*
X113784690Y-63094908D01*
X113784689Y-63094908D01*
X113962309Y-63168480D01*
X113962310Y-63168481D01*
X114122161Y-63275289D01*
X114258111Y-63411239D01*
X114347158Y-63544509D01*
X114364920Y-63571091D01*
X114421825Y-63708473D01*
X114438493Y-63748713D01*
X114476000Y-63937271D01*
X114476000Y-64129529D01*
X114438493Y-64318087D01*
X114438492Y-64318089D01*
X114364920Y-64495709D01*
X114364919Y-64495710D01*
X114258111Y-64655561D01*
X114122161Y-64791511D01*
X113988891Y-64880558D01*
X113962309Y-64898320D01*
X113824927Y-64955225D01*
X113784687Y-64971893D01*
X113596129Y-65009400D01*
X113403871Y-65009400D01*
X113215313Y-64971893D01*
X113175073Y-64955225D01*
X113037691Y-64898320D01*
X113011109Y-64880558D01*
X112877839Y-64791511D01*
X112741889Y-64655561D01*
X112635081Y-64495710D01*
X112635080Y-64495709D01*
X112561508Y-64318089D01*
X112561507Y-64318087D01*
X112524000Y-64129529D01*
X112524000Y-63937271D01*
X112561507Y-63748713D01*
X112578175Y-63708473D01*
X112635080Y-63571091D01*
X112652842Y-63544509D01*
X112741889Y-63411239D01*
X112877839Y-63275289D01*
X113037690Y-63168481D01*
X113037691Y-63168480D01*
X113215311Y-63094908D01*
X113215310Y-63094908D01*
X113215313Y-63094907D01*
X113403871Y-63057400D01*
X113596129Y-63057400D01*
X113784687Y-63094907D01*
X113784687Y-63094907D01*
G37*
G36*
X116284687Y-63094907D02*
G01*
X116284690Y-63094908D01*
X116284689Y-63094908D01*
X116462309Y-63168480D01*
X116462310Y-63168481D01*
X116622161Y-63275289D01*
X116758111Y-63411239D01*
X116847158Y-63544509D01*
X116864920Y-63571091D01*
X116921825Y-63708473D01*
X116938493Y-63748713D01*
X116976000Y-63937271D01*
X116976000Y-64129529D01*
X116938493Y-64318087D01*
X116938492Y-64318089D01*
X116864920Y-64495709D01*
X116864919Y-64495710D01*
X116758111Y-64655561D01*
X116622161Y-64791511D01*
X116488891Y-64880558D01*
X116462309Y-64898320D01*
X116324927Y-64955225D01*
X116284687Y-64971893D01*
X116096129Y-65009400D01*
X115903871Y-65009400D01*
X115715313Y-64971893D01*
X115675073Y-64955225D01*
X115537691Y-64898320D01*
X115511109Y-64880558D01*
X115377839Y-64791511D01*
X115241889Y-64655561D01*
X115135081Y-64495710D01*
X115135080Y-64495709D01*
X115061508Y-64318089D01*
X115061507Y-64318087D01*
X115024000Y-64129529D01*
X115024000Y-63937271D01*
X115061507Y-63748713D01*
X115078175Y-63708473D01*
X115135080Y-63571091D01*
X115152842Y-63544509D01*
X115241889Y-63411239D01*
X115377839Y-63275289D01*
X115537690Y-63168481D01*
X115537691Y-63168480D01*
X115715311Y-63094908D01*
X115715310Y-63094908D01*
X115715313Y-63094907D01*
X115903871Y-63057400D01*
X116096129Y-63057400D01*
X116284687Y-63094907D01*
X116284687Y-63094907D01*
G37*
G36*
X118784687Y-63094907D02*
G01*
X118784690Y-63094908D01*
X118784689Y-63094908D01*
X118962309Y-63168480D01*
X118962310Y-63168481D01*
X119122161Y-63275289D01*
X119258111Y-63411239D01*
X119347158Y-63544509D01*
X119364920Y-63571091D01*
X119421825Y-63708473D01*
X119438493Y-63748713D01*
X119476000Y-63937271D01*
X119476000Y-64129529D01*
X119438493Y-64318087D01*
X119438492Y-64318089D01*
X119364920Y-64495709D01*
X119364919Y-64495710D01*
X119258111Y-64655561D01*
X119122161Y-64791511D01*
X118988891Y-64880558D01*
X118962309Y-64898320D01*
X118824927Y-64955225D01*
X118784687Y-64971893D01*
X118596129Y-65009400D01*
X118403871Y-65009400D01*
X118215313Y-64971893D01*
X118175073Y-64955225D01*
X118037691Y-64898320D01*
X118011109Y-64880558D01*
X117877839Y-64791511D01*
X117741889Y-64655561D01*
X117635081Y-64495710D01*
X117635080Y-64495709D01*
X117561508Y-64318089D01*
X117561507Y-64318087D01*
X117524000Y-64129529D01*
X117524000Y-63937271D01*
X117561507Y-63748713D01*
X117578175Y-63708473D01*
X117635080Y-63571091D01*
X117652842Y-63544509D01*
X117741889Y-63411239D01*
X117877839Y-63275289D01*
X118037690Y-63168481D01*
X118037691Y-63168480D01*
X118215311Y-63094908D01*
X118215310Y-63094908D01*
X118215313Y-63094907D01*
X118403871Y-63057400D01*
X118596129Y-63057400D01*
X118784687Y-63094907D01*
X118784687Y-63094907D01*
G37*
G36*
X124476000Y-65009400D02*
G01*
X122524000Y-65009400D01*
X122524000Y-63057400D01*
X124476000Y-63057400D01*
X124476000Y-65009400D01*
X124476000Y-65009400D01*
G37*
G36*
X117951653Y-60853155D02*
G01*
X117986315Y-60863670D01*
X118018267Y-60880749D01*
X118046270Y-60903730D01*
X118069251Y-60931733D01*
X118086330Y-60963685D01*
X118096845Y-60998347D01*
X118101000Y-61040540D01*
X118101000Y-61959460D01*
X118096845Y-62001653D01*
X118086330Y-62036315D01*
X118069251Y-62068267D01*
X118046270Y-62096270D01*
X118018267Y-62119251D01*
X117986315Y-62136330D01*
X117951653Y-62146845D01*
X117909460Y-62151000D01*
X116090540Y-62151000D01*
X116048347Y-62146845D01*
X116013685Y-62136330D01*
X115981733Y-62119251D01*
X115953730Y-62096270D01*
X115930749Y-62068267D01*
X115913670Y-62036315D01*
X115903155Y-62001653D01*
X115899000Y-61959460D01*
X115899000Y-61040540D01*
X115903155Y-60998347D01*
X115913670Y-60963685D01*
X115930749Y-60931733D01*
X115953730Y-60903730D01*
X115981733Y-60880749D01*
X116013685Y-60863670D01*
X116048347Y-60853155D01*
X116090540Y-60849000D01*
X117909460Y-60849000D01*
X117951653Y-60853155D01*
X117951653Y-60853155D01*
G37*
G36*
X117951653Y-58353155D02*
G01*
X117986315Y-58363670D01*
X118018267Y-58380749D01*
X118046270Y-58403730D01*
X118069251Y-58431733D01*
X118086330Y-58463685D01*
X118096845Y-58498347D01*
X118101000Y-58540540D01*
X118101000Y-59459460D01*
X118096845Y-59501653D01*
X118086330Y-59536315D01*
X118069251Y-59568267D01*
X118046270Y-59596270D01*
X118018267Y-59619251D01*
X117986315Y-59636330D01*
X117951653Y-59646845D01*
X117909460Y-59651000D01*
X116090540Y-59651000D01*
X116048347Y-59646845D01*
X116013685Y-59636330D01*
X115981733Y-59619251D01*
X115953730Y-59596270D01*
X115930749Y-59568267D01*
X115913670Y-59536315D01*
X115903155Y-59501653D01*
X115899000Y-59459460D01*
X115899000Y-58540540D01*
X115903155Y-58498347D01*
X115913670Y-58463685D01*
X115930749Y-58431733D01*
X115953730Y-58403730D01*
X115981733Y-58380749D01*
X116013685Y-58363670D01*
X116048347Y-58353155D01*
X116090540Y-58349000D01*
X117909460Y-58349000D01*
X117951653Y-58353155D01*
X117951653Y-58353155D01*
G37*
G36*
X117951653Y-55853155D02*
G01*
X117986315Y-55863670D01*
X118018267Y-55880749D01*
X118046270Y-55903730D01*
X118069251Y-55931733D01*
X118086330Y-55963685D01*
X118096845Y-55998347D01*
X118101000Y-56040540D01*
X118101000Y-56959460D01*
X118096845Y-57001653D01*
X118086330Y-57036315D01*
X118069251Y-57068267D01*
X118046270Y-57096270D01*
X118018267Y-57119251D01*
X117986315Y-57136330D01*
X117951653Y-57146845D01*
X117909460Y-57151000D01*
X116090540Y-57151000D01*
X116048347Y-57146845D01*
X116013685Y-57136330D01*
X115981733Y-57119251D01*
X115953730Y-57096270D01*
X115930749Y-57068267D01*
X115913670Y-57036315D01*
X115903155Y-57001653D01*
X115899000Y-56959460D01*
X115899000Y-56040540D01*
X115903155Y-55998347D01*
X115913670Y-55963685D01*
X115930749Y-55931733D01*
X115953730Y-55903730D01*
X115981733Y-55880749D01*
X116013685Y-55863670D01*
X116048347Y-55853155D01*
X116090540Y-55849000D01*
X117909460Y-55849000D01*
X117951653Y-55853155D01*
X117951653Y-55853155D01*
G37*
G36*
X117951653Y-53353155D02*
G01*
X117986315Y-53363670D01*
X118018267Y-53380749D01*
X118046270Y-53403730D01*
X118069251Y-53431733D01*
X118086330Y-53463685D01*
X118096845Y-53498347D01*
X118101000Y-53540540D01*
X118101000Y-54459460D01*
X118096845Y-54501653D01*
X118086330Y-54536315D01*
X118069251Y-54568267D01*
X118046270Y-54596270D01*
X118018267Y-54619251D01*
X117986315Y-54636330D01*
X117951653Y-54646845D01*
X117909460Y-54651000D01*
X116090540Y-54651000D01*
X116048347Y-54646845D01*
X116013685Y-54636330D01*
X115981733Y-54619251D01*
X115953730Y-54596270D01*
X115930749Y-54568267D01*
X115913670Y-54536315D01*
X115903155Y-54501653D01*
X115899000Y-54459460D01*
X115899000Y-53540540D01*
X115903155Y-53498347D01*
X115913670Y-53463685D01*
X115930749Y-53431733D01*
X115953730Y-53403730D01*
X115981733Y-53380749D01*
X116013685Y-53363670D01*
X116048347Y-53353155D01*
X116090540Y-53349000D01*
X117909460Y-53349000D01*
X117951653Y-53353155D01*
X117951653Y-53353155D01*
G37*
G36*
X117951653Y-50853155D02*
G01*
X117986315Y-50863670D01*
X118018267Y-50880749D01*
X118046270Y-50903730D01*
X118069251Y-50931733D01*
X118086330Y-50963685D01*
X118096845Y-50998347D01*
X118101000Y-51040540D01*
X118101000Y-51959460D01*
X118096845Y-52001653D01*
X118086330Y-52036315D01*
X118069251Y-52068267D01*
X118046270Y-52096270D01*
X118018267Y-52119251D01*
X117986315Y-52136330D01*
X117951653Y-52146845D01*
X117909460Y-52151000D01*
X116090540Y-52151000D01*
X116048347Y-52146845D01*
X116013685Y-52136330D01*
X115981733Y-52119251D01*
X115953730Y-52096270D01*
X115930749Y-52068267D01*
X115913670Y-52036315D01*
X115903155Y-52001653D01*
X115899000Y-51959460D01*
X115899000Y-51040540D01*
X115903155Y-50998347D01*
X115913670Y-50963685D01*
X115930749Y-50931733D01*
X115953730Y-50903730D01*
X115981733Y-50880749D01*
X116013685Y-50863670D01*
X116048347Y-50853155D01*
X116090540Y-50849000D01*
X117909460Y-50849000D01*
X117951653Y-50853155D01*
X117951653Y-50853155D01*
G37*
G36*
X120976000Y-50976000D02*
G01*
X119024000Y-50976000D01*
X119024000Y-49024000D01*
X120976000Y-49024000D01*
X120976000Y-50976000D01*
X120976000Y-50976000D01*
G37*
G36*
X122784687Y-49061507D02*
G01*
X122784690Y-49061508D01*
X122784689Y-49061508D01*
X122962309Y-49135080D01*
X122962310Y-49135081D01*
X123122161Y-49241889D01*
X123258111Y-49377839D01*
X123347158Y-49511109D01*
X123364920Y-49537691D01*
X123369825Y-49549533D01*
X123438493Y-49715313D01*
X123476000Y-49903871D01*
X123476000Y-50096129D01*
X123438493Y-50284687D01*
X123438492Y-50284689D01*
X123364920Y-50462309D01*
X123364919Y-50462310D01*
X123258111Y-50622161D01*
X123122161Y-50758111D01*
X122995466Y-50842765D01*
X122962309Y-50864920D01*
X122842725Y-50914453D01*
X122784687Y-50938493D01*
X122596129Y-50976000D01*
X122403871Y-50976000D01*
X122215313Y-50938493D01*
X122157275Y-50914453D01*
X122037691Y-50864920D01*
X122004534Y-50842765D01*
X121877839Y-50758111D01*
X121741889Y-50622161D01*
X121635081Y-50462310D01*
X121635080Y-50462309D01*
X121561508Y-50284689D01*
X121561507Y-50284687D01*
X121524000Y-50096129D01*
X121524000Y-49903871D01*
X121561507Y-49715313D01*
X121630175Y-49549533D01*
X121635080Y-49537691D01*
X121652842Y-49511109D01*
X121741889Y-49377839D01*
X121877839Y-49241889D01*
X122037690Y-49135081D01*
X122037691Y-49135080D01*
X122215311Y-49061508D01*
X122215310Y-49061508D01*
X122215313Y-49061507D01*
X122403871Y-49024000D01*
X122596129Y-49024000D01*
X122784687Y-49061507D01*
X122784687Y-49061507D01*
G37*
G36*
X110737395Y-49085546D02*
G01*
X110910466Y-49157234D01*
X110910467Y-49157235D01*
X111066227Y-49261310D01*
X111198690Y-49393773D01*
X111198691Y-49393775D01*
X111302766Y-49549534D01*
X111374454Y-49722605D01*
X111411000Y-49906333D01*
X111411000Y-50093667D01*
X111374454Y-50277395D01*
X111302766Y-50450466D01*
X111294852Y-50462310D01*
X111198690Y-50606227D01*
X111066227Y-50738690D01*
X111037161Y-50758111D01*
X110910466Y-50842766D01*
X110737395Y-50914454D01*
X110553667Y-50951000D01*
X110366333Y-50951000D01*
X110182605Y-50914454D01*
X110009534Y-50842766D01*
X109882839Y-50758111D01*
X109853773Y-50738690D01*
X109721310Y-50606227D01*
X109625148Y-50462310D01*
X109617234Y-50450466D01*
X109545546Y-50277395D01*
X109509000Y-50093667D01*
X109509000Y-49906333D01*
X109545546Y-49722605D01*
X109617234Y-49549534D01*
X109721309Y-49393775D01*
X109721310Y-49393773D01*
X109853773Y-49261310D01*
X110009533Y-49157235D01*
X110009534Y-49157234D01*
X110182605Y-49085546D01*
X110366333Y-49049000D01*
X110553667Y-49049000D01*
X110737395Y-49085546D01*
X110737395Y-49085546D01*
G37*
G36*
X113951000Y-50951000D02*
G01*
X112049000Y-50951000D01*
X112049000Y-49049000D01*
X113951000Y-49049000D01*
X113951000Y-50951000D01*
X113951000Y-50951000D01*
G37*
M02*
