G04 #@! TF.GenerationSoftware,KiCad,Pcbnew,5.1.4*
G04 #@! TF.CreationDate,2019-08-11T23:13:52-05:00*
G04 #@! TF.ProjectId,pic12f-garage-door,70696331-3266-42d6-9761-726167652d64,rev?*
G04 #@! TF.SameCoordinates,Original*
G04 #@! TF.FileFunction,Paste,Bot*
G04 #@! TF.FilePolarity,Positive*
%FSLAX46Y46*%
G04 Gerber Fmt 4.6, Leading zero omitted, Abs format (unit mm)*
G04 Created by KiCad (PCBNEW 5.1.4) date 2019-08-11 23:13:52*
%MOMM*%
%LPD*%
G04 APERTURE LIST*
%ADD10C,0.100000*%
%ADD11C,1.200000*%
G04 APERTURE END LIST*
D10*
G36*
X117833524Y-50901156D02*
G01*
X117856822Y-50904612D01*
X117879668Y-50910334D01*
X117901844Y-50918269D01*
X117923135Y-50928339D01*
X117943337Y-50940447D01*
X117962254Y-50954477D01*
X117979706Y-50970294D01*
X117995523Y-50987746D01*
X118009553Y-51006663D01*
X118021661Y-51026865D01*
X118031731Y-51048156D01*
X118039666Y-51070332D01*
X118045388Y-51093178D01*
X118048844Y-51116476D01*
X118050000Y-51140000D01*
X118050000Y-51860000D01*
X118048844Y-51883524D01*
X118045388Y-51906822D01*
X118039666Y-51929668D01*
X118031731Y-51951844D01*
X118021661Y-51973135D01*
X118009553Y-51993337D01*
X117995523Y-52012254D01*
X117979706Y-52029706D01*
X117962254Y-52045523D01*
X117943337Y-52059553D01*
X117923135Y-52071661D01*
X117901844Y-52081731D01*
X117879668Y-52089666D01*
X117856822Y-52095388D01*
X117833524Y-52098844D01*
X117810000Y-52100000D01*
X116190000Y-52100000D01*
X116166476Y-52098844D01*
X116143178Y-52095388D01*
X116120332Y-52089666D01*
X116098156Y-52081731D01*
X116076865Y-52071661D01*
X116056663Y-52059553D01*
X116037746Y-52045523D01*
X116020294Y-52029706D01*
X116004477Y-52012254D01*
X115990447Y-51993337D01*
X115978339Y-51973135D01*
X115968269Y-51951844D01*
X115960334Y-51929668D01*
X115954612Y-51906822D01*
X115951156Y-51883524D01*
X115950000Y-51860000D01*
X115950000Y-51140000D01*
X115951156Y-51116476D01*
X115954612Y-51093178D01*
X115960334Y-51070332D01*
X115968269Y-51048156D01*
X115978339Y-51026865D01*
X115990447Y-51006663D01*
X116004477Y-50987746D01*
X116020294Y-50970294D01*
X116037746Y-50954477D01*
X116056663Y-50940447D01*
X116076865Y-50928339D01*
X116098156Y-50918269D01*
X116120332Y-50910334D01*
X116143178Y-50904612D01*
X116166476Y-50901156D01*
X116190000Y-50900000D01*
X117810000Y-50900000D01*
X117833524Y-50901156D01*
X117833524Y-50901156D01*
G37*
D11*
X117000000Y-51500000D03*
D10*
G36*
X117833524Y-53401156D02*
G01*
X117856822Y-53404612D01*
X117879668Y-53410334D01*
X117901844Y-53418269D01*
X117923135Y-53428339D01*
X117943337Y-53440447D01*
X117962254Y-53454477D01*
X117979706Y-53470294D01*
X117995523Y-53487746D01*
X118009553Y-53506663D01*
X118021661Y-53526865D01*
X118031731Y-53548156D01*
X118039666Y-53570332D01*
X118045388Y-53593178D01*
X118048844Y-53616476D01*
X118050000Y-53640000D01*
X118050000Y-54360000D01*
X118048844Y-54383524D01*
X118045388Y-54406822D01*
X118039666Y-54429668D01*
X118031731Y-54451844D01*
X118021661Y-54473135D01*
X118009553Y-54493337D01*
X117995523Y-54512254D01*
X117979706Y-54529706D01*
X117962254Y-54545523D01*
X117943337Y-54559553D01*
X117923135Y-54571661D01*
X117901844Y-54581731D01*
X117879668Y-54589666D01*
X117856822Y-54595388D01*
X117833524Y-54598844D01*
X117810000Y-54600000D01*
X116190000Y-54600000D01*
X116166476Y-54598844D01*
X116143178Y-54595388D01*
X116120332Y-54589666D01*
X116098156Y-54581731D01*
X116076865Y-54571661D01*
X116056663Y-54559553D01*
X116037746Y-54545523D01*
X116020294Y-54529706D01*
X116004477Y-54512254D01*
X115990447Y-54493337D01*
X115978339Y-54473135D01*
X115968269Y-54451844D01*
X115960334Y-54429668D01*
X115954612Y-54406822D01*
X115951156Y-54383524D01*
X115950000Y-54360000D01*
X115950000Y-53640000D01*
X115951156Y-53616476D01*
X115954612Y-53593178D01*
X115960334Y-53570332D01*
X115968269Y-53548156D01*
X115978339Y-53526865D01*
X115990447Y-53506663D01*
X116004477Y-53487746D01*
X116020294Y-53470294D01*
X116037746Y-53454477D01*
X116056663Y-53440447D01*
X116076865Y-53428339D01*
X116098156Y-53418269D01*
X116120332Y-53410334D01*
X116143178Y-53404612D01*
X116166476Y-53401156D01*
X116190000Y-53400000D01*
X117810000Y-53400000D01*
X117833524Y-53401156D01*
X117833524Y-53401156D01*
G37*
D11*
X117000000Y-54000000D03*
D10*
G36*
X117833524Y-55901156D02*
G01*
X117856822Y-55904612D01*
X117879668Y-55910334D01*
X117901844Y-55918269D01*
X117923135Y-55928339D01*
X117943337Y-55940447D01*
X117962254Y-55954477D01*
X117979706Y-55970294D01*
X117995523Y-55987746D01*
X118009553Y-56006663D01*
X118021661Y-56026865D01*
X118031731Y-56048156D01*
X118039666Y-56070332D01*
X118045388Y-56093178D01*
X118048844Y-56116476D01*
X118050000Y-56140000D01*
X118050000Y-56860000D01*
X118048844Y-56883524D01*
X118045388Y-56906822D01*
X118039666Y-56929668D01*
X118031731Y-56951844D01*
X118021661Y-56973135D01*
X118009553Y-56993337D01*
X117995523Y-57012254D01*
X117979706Y-57029706D01*
X117962254Y-57045523D01*
X117943337Y-57059553D01*
X117923135Y-57071661D01*
X117901844Y-57081731D01*
X117879668Y-57089666D01*
X117856822Y-57095388D01*
X117833524Y-57098844D01*
X117810000Y-57100000D01*
X116190000Y-57100000D01*
X116166476Y-57098844D01*
X116143178Y-57095388D01*
X116120332Y-57089666D01*
X116098156Y-57081731D01*
X116076865Y-57071661D01*
X116056663Y-57059553D01*
X116037746Y-57045523D01*
X116020294Y-57029706D01*
X116004477Y-57012254D01*
X115990447Y-56993337D01*
X115978339Y-56973135D01*
X115968269Y-56951844D01*
X115960334Y-56929668D01*
X115954612Y-56906822D01*
X115951156Y-56883524D01*
X115950000Y-56860000D01*
X115950000Y-56140000D01*
X115951156Y-56116476D01*
X115954612Y-56093178D01*
X115960334Y-56070332D01*
X115968269Y-56048156D01*
X115978339Y-56026865D01*
X115990447Y-56006663D01*
X116004477Y-55987746D01*
X116020294Y-55970294D01*
X116037746Y-55954477D01*
X116056663Y-55940447D01*
X116076865Y-55928339D01*
X116098156Y-55918269D01*
X116120332Y-55910334D01*
X116143178Y-55904612D01*
X116166476Y-55901156D01*
X116190000Y-55900000D01*
X117810000Y-55900000D01*
X117833524Y-55901156D01*
X117833524Y-55901156D01*
G37*
D11*
X117000000Y-56500000D03*
D10*
G36*
X117833524Y-58401156D02*
G01*
X117856822Y-58404612D01*
X117879668Y-58410334D01*
X117901844Y-58418269D01*
X117923135Y-58428339D01*
X117943337Y-58440447D01*
X117962254Y-58454477D01*
X117979706Y-58470294D01*
X117995523Y-58487746D01*
X118009553Y-58506663D01*
X118021661Y-58526865D01*
X118031731Y-58548156D01*
X118039666Y-58570332D01*
X118045388Y-58593178D01*
X118048844Y-58616476D01*
X118050000Y-58640000D01*
X118050000Y-59360000D01*
X118048844Y-59383524D01*
X118045388Y-59406822D01*
X118039666Y-59429668D01*
X118031731Y-59451844D01*
X118021661Y-59473135D01*
X118009553Y-59493337D01*
X117995523Y-59512254D01*
X117979706Y-59529706D01*
X117962254Y-59545523D01*
X117943337Y-59559553D01*
X117923135Y-59571661D01*
X117901844Y-59581731D01*
X117879668Y-59589666D01*
X117856822Y-59595388D01*
X117833524Y-59598844D01*
X117810000Y-59600000D01*
X116190000Y-59600000D01*
X116166476Y-59598844D01*
X116143178Y-59595388D01*
X116120332Y-59589666D01*
X116098156Y-59581731D01*
X116076865Y-59571661D01*
X116056663Y-59559553D01*
X116037746Y-59545523D01*
X116020294Y-59529706D01*
X116004477Y-59512254D01*
X115990447Y-59493337D01*
X115978339Y-59473135D01*
X115968269Y-59451844D01*
X115960334Y-59429668D01*
X115954612Y-59406822D01*
X115951156Y-59383524D01*
X115950000Y-59360000D01*
X115950000Y-58640000D01*
X115951156Y-58616476D01*
X115954612Y-58593178D01*
X115960334Y-58570332D01*
X115968269Y-58548156D01*
X115978339Y-58526865D01*
X115990447Y-58506663D01*
X116004477Y-58487746D01*
X116020294Y-58470294D01*
X116037746Y-58454477D01*
X116056663Y-58440447D01*
X116076865Y-58428339D01*
X116098156Y-58418269D01*
X116120332Y-58410334D01*
X116143178Y-58404612D01*
X116166476Y-58401156D01*
X116190000Y-58400000D01*
X117810000Y-58400000D01*
X117833524Y-58401156D01*
X117833524Y-58401156D01*
G37*
D11*
X117000000Y-59000000D03*
D10*
G36*
X117833524Y-60901156D02*
G01*
X117856822Y-60904612D01*
X117879668Y-60910334D01*
X117901844Y-60918269D01*
X117923135Y-60928339D01*
X117943337Y-60940447D01*
X117962254Y-60954477D01*
X117979706Y-60970294D01*
X117995523Y-60987746D01*
X118009553Y-61006663D01*
X118021661Y-61026865D01*
X118031731Y-61048156D01*
X118039666Y-61070332D01*
X118045388Y-61093178D01*
X118048844Y-61116476D01*
X118050000Y-61140000D01*
X118050000Y-61860000D01*
X118048844Y-61883524D01*
X118045388Y-61906822D01*
X118039666Y-61929668D01*
X118031731Y-61951844D01*
X118021661Y-61973135D01*
X118009553Y-61993337D01*
X117995523Y-62012254D01*
X117979706Y-62029706D01*
X117962254Y-62045523D01*
X117943337Y-62059553D01*
X117923135Y-62071661D01*
X117901844Y-62081731D01*
X117879668Y-62089666D01*
X117856822Y-62095388D01*
X117833524Y-62098844D01*
X117810000Y-62100000D01*
X116190000Y-62100000D01*
X116166476Y-62098844D01*
X116143178Y-62095388D01*
X116120332Y-62089666D01*
X116098156Y-62081731D01*
X116076865Y-62071661D01*
X116056663Y-62059553D01*
X116037746Y-62045523D01*
X116020294Y-62029706D01*
X116004477Y-62012254D01*
X115990447Y-61993337D01*
X115978339Y-61973135D01*
X115968269Y-61951844D01*
X115960334Y-61929668D01*
X115954612Y-61906822D01*
X115951156Y-61883524D01*
X115950000Y-61860000D01*
X115950000Y-61140000D01*
X115951156Y-61116476D01*
X115954612Y-61093178D01*
X115960334Y-61070332D01*
X115968269Y-61048156D01*
X115978339Y-61026865D01*
X115990447Y-61006663D01*
X116004477Y-60987746D01*
X116020294Y-60970294D01*
X116037746Y-60954477D01*
X116056663Y-60940447D01*
X116076865Y-60928339D01*
X116098156Y-60918269D01*
X116120332Y-60910334D01*
X116143178Y-60904612D01*
X116166476Y-60901156D01*
X116190000Y-60900000D01*
X117810000Y-60900000D01*
X117833524Y-60901156D01*
X117833524Y-60901156D01*
G37*
D11*
X117000000Y-61500000D03*
M02*
