G04 #@! TF.GenerationSoftware,KiCad,Pcbnew,5.1.4*
G04 #@! TF.CreationDate,2019-08-11T23:13:52-05:00*
G04 #@! TF.ProjectId,pic12f-garage-door,70696331-3266-42d6-9761-726167652d64,rev?*
G04 #@! TF.SameCoordinates,Original*
G04 #@! TF.FileFunction,Legend,Top*
G04 #@! TF.FilePolarity,Positive*
%FSLAX46Y46*%
G04 Gerber Fmt 4.6, Leading zero omitted, Abs format (unit mm)*
G04 Created by KiCad (PCBNEW 5.1.4) date 2019-08-11 23:13:52*
%MOMM*%
%LPD*%
G04 APERTURE LIST*
%ADD10C,0.120000*%
%ADD11C,0.150000*%
G04 APERTURE END LIST*
D10*
X117350000Y-48250000D02*
X117350000Y-52350000D01*
X117350000Y-52350000D02*
X125150000Y-52350000D01*
X125150000Y-52350000D02*
X125150000Y-48250000D01*
X125150000Y-48250000D02*
X117350000Y-48250000D01*
X117350000Y-50000000D02*
X117850000Y-50000000D01*
X117850000Y-50000000D02*
X117850000Y-48750000D01*
X117850000Y-48750000D02*
X124650000Y-48750000D01*
X124650000Y-48750000D02*
X124650000Y-50000000D01*
X124650000Y-50000000D02*
X125150000Y-50000000D01*
X117350000Y-50850000D02*
X118350000Y-50850000D01*
X118350000Y-50850000D02*
X118350000Y-52350000D01*
X125150000Y-50850000D02*
X124150000Y-50850000D01*
X124150000Y-50850000D02*
X124150000Y-52350000D01*
X117050000Y-50150000D02*
X117050000Y-52650000D01*
X117050000Y-52650000D02*
X119550000Y-52650000D01*
X126150000Y-65783400D02*
X126150000Y-61683400D01*
X126150000Y-61683400D02*
X108350000Y-61683400D01*
X108350000Y-61683400D02*
X108350000Y-65783400D01*
X108350000Y-65783400D02*
X126150000Y-65783400D01*
X126150000Y-64033400D02*
X125650000Y-64033400D01*
X125650000Y-64033400D02*
X125650000Y-65283400D01*
X125650000Y-65283400D02*
X108850000Y-65283400D01*
X108850000Y-65283400D02*
X108850000Y-64033400D01*
X108850000Y-64033400D02*
X108350000Y-64033400D01*
X126150000Y-63183400D02*
X125150000Y-63183400D01*
X125150000Y-63183400D02*
X125150000Y-61683400D01*
X108350000Y-63183400D02*
X109350000Y-63183400D01*
X109350000Y-63183400D02*
X109350000Y-61683400D01*
X126450000Y-63883400D02*
X126450000Y-61383400D01*
X126450000Y-61383400D02*
X123950000Y-61383400D01*
D11*
X114925000Y-54830000D02*
X114925000Y-54880000D01*
X119075000Y-54830000D02*
X119075000Y-54975000D01*
X119075000Y-59980000D02*
X119075000Y-59835000D01*
X114925000Y-59980000D02*
X114925000Y-59835000D01*
X114925000Y-54830000D02*
X119075000Y-54830000D01*
X114925000Y-59980000D02*
X119075000Y-59980000D01*
X114925000Y-54880000D02*
X113525000Y-54880000D01*
D10*
X111050000Y-59880000D02*
X109850000Y-59880000D01*
X109850000Y-58120000D02*
X111050000Y-58120000D01*
X125150000Y-59880000D02*
X123950000Y-59880000D01*
X123950000Y-58120000D02*
X125150000Y-58120000D01*
X125150000Y-56380000D02*
X123950000Y-56380000D01*
X123950000Y-54620000D02*
X125150000Y-54620000D01*
X110057665Y-51078608D02*
G75*
G03X113290000Y-51235516I1672335J1078608D01*
G01*
X110057665Y-48921392D02*
G75*
G02X113290000Y-48764484I1672335J-1078608D01*
G01*
X110688870Y-51079837D02*
G75*
G03X112770961Y-51080000I1041130J1079837D01*
G01*
X110688870Y-48920163D02*
G75*
G02X112770961Y-48920000I1041130J-1079837D01*
G01*
X113290000Y-51236000D02*
X113290000Y-51080000D01*
X113290000Y-48920000D02*
X113290000Y-48764000D01*
X111000000Y-54650000D02*
X110000000Y-54650000D01*
X110000000Y-56350000D02*
X111000000Y-56350000D01*
D11*
X120916666Y-46452380D02*
X120916666Y-47166666D01*
X120869047Y-47309523D01*
X120773809Y-47404761D01*
X120630952Y-47452380D01*
X120535714Y-47452380D01*
X121583333Y-46452380D02*
X121678571Y-46452380D01*
X121773809Y-46500000D01*
X121821428Y-46547619D01*
X121869047Y-46642857D01*
X121916666Y-46833333D01*
X121916666Y-47071428D01*
X121869047Y-47261904D01*
X121821428Y-47357142D01*
X121773809Y-47404761D01*
X121678571Y-47452380D01*
X121583333Y-47452380D01*
X121488095Y-47404761D01*
X121440476Y-47357142D01*
X121392857Y-47261904D01*
X121345238Y-47071428D01*
X121345238Y-46833333D01*
X121392857Y-46642857D01*
X121440476Y-46547619D01*
X121488095Y-46500000D01*
X121583333Y-46452380D01*
X116916666Y-66485780D02*
X116916666Y-67200066D01*
X116869047Y-67342923D01*
X116773809Y-67438161D01*
X116630952Y-67485780D01*
X116535714Y-67485780D01*
X117345238Y-66581019D02*
X117392857Y-66533400D01*
X117488095Y-66485780D01*
X117726190Y-66485780D01*
X117821428Y-66533400D01*
X117869047Y-66581019D01*
X117916666Y-66676257D01*
X117916666Y-66771495D01*
X117869047Y-66914352D01*
X117297619Y-67485780D01*
X117916666Y-67485780D01*
X116238095Y-53357380D02*
X116238095Y-54166904D01*
X116285714Y-54262142D01*
X116333333Y-54309761D01*
X116428571Y-54357380D01*
X116619047Y-54357380D01*
X116714285Y-54309761D01*
X116761904Y-54262142D01*
X116809523Y-54166904D01*
X116809523Y-53357380D01*
X117809523Y-54357380D02*
X117238095Y-54357380D01*
X117523809Y-54357380D02*
X117523809Y-53357380D01*
X117428571Y-53500238D01*
X117333333Y-53595476D01*
X117238095Y-53643095D01*
X110283333Y-57802380D02*
X109950000Y-57326190D01*
X109711904Y-57802380D02*
X109711904Y-56802380D01*
X110092857Y-56802380D01*
X110188095Y-56850000D01*
X110235714Y-56897619D01*
X110283333Y-56992857D01*
X110283333Y-57135714D01*
X110235714Y-57230952D01*
X110188095Y-57278571D01*
X110092857Y-57326190D01*
X109711904Y-57326190D01*
X110616666Y-56802380D02*
X111235714Y-56802380D01*
X110902380Y-57183333D01*
X111045238Y-57183333D01*
X111140476Y-57230952D01*
X111188095Y-57278571D01*
X111235714Y-57373809D01*
X111235714Y-57611904D01*
X111188095Y-57707142D01*
X111140476Y-57754761D01*
X111045238Y-57802380D01*
X110759523Y-57802380D01*
X110664285Y-57754761D01*
X110616666Y-57707142D01*
X124383333Y-57802380D02*
X124050000Y-57326190D01*
X123811904Y-57802380D02*
X123811904Y-56802380D01*
X124192857Y-56802380D01*
X124288095Y-56850000D01*
X124335714Y-56897619D01*
X124383333Y-56992857D01*
X124383333Y-57135714D01*
X124335714Y-57230952D01*
X124288095Y-57278571D01*
X124192857Y-57326190D01*
X123811904Y-57326190D01*
X124764285Y-56897619D02*
X124811904Y-56850000D01*
X124907142Y-56802380D01*
X125145238Y-56802380D01*
X125240476Y-56850000D01*
X125288095Y-56897619D01*
X125335714Y-56992857D01*
X125335714Y-57088095D01*
X125288095Y-57230952D01*
X124716666Y-57802380D01*
X125335714Y-57802380D01*
X124383333Y-54302380D02*
X124050000Y-53826190D01*
X123811904Y-54302380D02*
X123811904Y-53302380D01*
X124192857Y-53302380D01*
X124288095Y-53350000D01*
X124335714Y-53397619D01*
X124383333Y-53492857D01*
X124383333Y-53635714D01*
X124335714Y-53730952D01*
X124288095Y-53778571D01*
X124192857Y-53826190D01*
X123811904Y-53826190D01*
X125335714Y-54302380D02*
X124764285Y-54302380D01*
X125050000Y-54302380D02*
X125050000Y-53302380D01*
X124954761Y-53445238D01*
X124859523Y-53540476D01*
X124764285Y-53588095D01*
X111357142Y-47452380D02*
X110880952Y-47452380D01*
X110880952Y-46452380D01*
X111690476Y-46928571D02*
X112023809Y-46928571D01*
X112166666Y-47452380D02*
X111690476Y-47452380D01*
X111690476Y-46452380D01*
X112166666Y-46452380D01*
X112595238Y-47452380D02*
X112595238Y-46452380D01*
X112833333Y-46452380D01*
X112976190Y-46500000D01*
X113071428Y-46595238D01*
X113119047Y-46690476D01*
X113166666Y-46880952D01*
X113166666Y-47023809D01*
X113119047Y-47214285D01*
X113071428Y-47309523D01*
X112976190Y-47404761D01*
X112833333Y-47452380D01*
X112595238Y-47452380D01*
X110333333Y-54357142D02*
X110285714Y-54404761D01*
X110142857Y-54452380D01*
X110047619Y-54452380D01*
X109904761Y-54404761D01*
X109809523Y-54309523D01*
X109761904Y-54214285D01*
X109714285Y-54023809D01*
X109714285Y-53880952D01*
X109761904Y-53690476D01*
X109809523Y-53595238D01*
X109904761Y-53500000D01*
X110047619Y-53452380D01*
X110142857Y-53452380D01*
X110285714Y-53500000D01*
X110333333Y-53547619D01*
X111285714Y-54452380D02*
X110714285Y-54452380D01*
X111000000Y-54452380D02*
X111000000Y-53452380D01*
X110904761Y-53595238D01*
X110809523Y-53690476D01*
X110714285Y-53738095D01*
M02*
